<svg xmlns="http://www.w3.org/2000/svg" xmlns:xlink="http://www.w3.org/1999/xlink" version="1.1" id="Layer_1" x="0px" y="0px" style="enable-background:new 0 0 612 792;" xml:space="preserve" viewBox="27.01 39.22 478.81 588.37">
<style type="text/css">
	.st0{fill:#E4E4EE;}
	.st1{fill:#E6E7E8;}
	.st2{fill:#AFA6D1;}
	.st3{fill:#FFFFFF;}
</style>
<g>
	<path class="st0" d="M249.51,300.02c0,5.56-0.02,9.48,0.02,13.39c0.01,0.59-0.38,1.58,0.5,1.68c0.77,0.09,0.93-0.87,0.94-1.49   c0.25-8.53,0.97-16.99-0.14-25.59c-0.71-5.57-1.72-11.05-2.94-16.47c-1.22-5.4-3.27-10.61-5.06-15.88   c-0.92-2.73-1.83-5.37-1.88-8.36c-0.11-6.54-0.34-13.18-1.2-19.59c-1.25-9.29-2.08-18.74-5.48-27.73   c-2.09-5.53-1.83-11.69-2.2-17.6c-0.6-9.45-2.17-18.38-9.87-25.03c-3.21-2.77-6.83-4.88-10.83-5.7   c-9.96-2.06-18.76-6.59-27.48-11.54c-6.03-3.43-12.36-6.31-17.62-10.98c-3.14-2.8-4.82-6.39-6.18-10.21   c-1.09-3.07-2.02-3.36-4.44-1.21c-2.77,2.46-4.97,5.51-8.66,6.98c-5.24,2.09-13.54,0.25-17.02-4.13c-1.29-1.62-2.66-3.18-3.97-4.78   c-0.4-0.49-0.82-0.85-1.48-0.63c-0.63,0.22-0.74,0.78-0.9,1.37c-0.96,3.66-2.09,7.24-4.19,10.45c-3.06,4.67-8.22,6.36-12.72,8.83   c-7.38,4.03-14.91,7.81-21.94,12.41c-4.05,2.65-8.62,3.14-13.05,4.25c-7.36,1.84-12.64,6.16-15.99,12.86   c-4.54,9.06-3.62,19.12-4.99,28.75c-0.5,3.53-1.48,6.93-2.64,10.23c-1.7,4.86-2.23,9.92-2.82,14.93   c-1.21,10.22-1.71,20.49-1.78,30.8c-0.02,3.2-2.4,6.37-3.69,9.56c-3.3,8.21-5.36,16.73-5.55,25.57   c-0.22,10.16-0.06,20.33-0.04,30.5c0,0.78-0.28,2.24,0.46,2.19c1.04-0.07,0.43-1.44,0.51-2.23c1.11-10.74-0.52-21.66,1.62-32.29   c1.54-7.64,2.6-15.53,6.75-22.44c0.38-0.63,0.38-1.54,1.42-1.33c0.9,0.18,1.79,0.48,2.13,1.49c1.62,4.79,4.64,9.11,4.64,14.45   c0,1.45,1.24,2.35,2.47,2.87c1.12,0.47,2.06-0.14,2.86-1.01c2.01-2.21,4.03-4.42,6.09-6.58c0.94-0.99,2.33-1.14,2.37,0.39   c0.16,6.03,0.67,12.16-0.19,18.07c-1.37,9.4-7.54,16.6-12.79,24.14c-1.94,2.79-3.97,5.48-6.38,7.91c-4.55,4.61-8,4.23-10.97-1.41   c-0.44-0.83-0.69-0.36-1.05-0.08c-0.79,0.63-0.95,1.48-0.96,2.45c-0.05,4.31,0.19,8.6-0.91,12.89c-1.22,4.75-1.83,9.66-2.9,14.46   c-1.4,6.32-0.46,12.39,0.99,18.59c1.2,5.12,3.06,9.71,6.74,13.5c0.28,0.29,0.66,0.71,0.2,1.03c-0.24,0.17-0.8,0.09-1.11-0.07   c-2.39-1.24-3.38-3.63-4.42-5.84c-3.93-8.3-5.5-17.1-4.48-26.21c0.42-3.72,1.84-7.32,2.61-11.01c0.73-3.53,1.63-7.1,1.73-10.67   c0.35-13.39,0.24-26.8,0.64-40.19c0.22-7.23,1.34-14.46,3.21-21.43c1.52-5.64,4.11-10.98,6.14-16.49c1.01-2.75,1.07-5.72,0.99-8.55   c-0.23-8.66,0.23-17.3,1.21-25.86c0.63-5.5,2.13-10.94,3.87-16.28c0.95-2.94,1.32-6.09,1.73-9.18c0.53-3.93,1.03-7.89,1.22-11.85   c0.64-12.78,6.06-22.99,18.79-27.66c3.9-1.43,8.27-1.52,12.01-3.41c4.92-2.48,9.63-5.36,14.46-8.03c5.4-3,10.75-6.12,16.27-8.88   c4.81-2.4,7.11-6.35,9.01-11.18c2.25-5.73-0.35-10.35-1.59-15.55c-1.35-5.66-6.41-9.46-6.74-15.4c-0.1-1.81-0.42-3.61-0.59-5.42   c-0.02-0.25,0.23-0.53,0.36-0.79c0.27,0.15,0.64,0.23,0.8,0.46c0.28,0.4,0.63,0.91,0.6,1.35c-0.35,5.24,2.26,9.22,4.88,13.48   c2.2,3.59,2.07,8.32,4.62,12c3.79,5.49,7.65,10.89,14.06,13.52c2.61,1.07,9.07,0.62,11.91-2.09c6.79-6.49,12.47-13.51,14.24-23.06   c0.13-0.68,0.68-1.34,1.16-1.9c3.66-4.31,4.73-9.51,4.03-14.82c-0.45-3.36-3.16-6.28-2.37-10.1c0.85-4.12,0.05-8.24-0.56-12.3   c-0.96-6.39-4.69-10.9-10.09-14.3c-11.25-7.09-25.56-4.23-33.37,3.45c-3.86,3.79-6.05,8.56-5.96,14.25   c0.07,4.56-0.27,9.13-0.47,13.69c-0.03,0.63-0.2,1.33-0.54,1.85c-0.56,0.87-1.22,2.64-1.89,2.31c-1.4-0.69,0.32-1.73,0.37-2.67   c0.1-2-0.06-4.01,0.12-5.99c0.59-6.39,0.28-12.89,3.14-18.96c3.25-6.91,9.24-10.24,15.95-12.36c10.4-3.28,19.7-0.41,27.88,6.34   c3.33,2.74,4.98,6.54,6.05,10.79c1.5,5.97,1.06,11.99,1.49,17.99c0.24,3.27,2.35,6.18,2.02,9.78c-0.27,2.94-0.5,5.98-2.13,8.25   c-3.5,4.87-4.21,10.92-7.14,15.86c-2.33,3.93-0.76,6.61,0.46,10.04c3.61,10.17,12.69,13.75,21.06,18.27c5,2.7,9.88,5.62,14.99,8.08   c2.61,1.26,5.59,1.8,8.44,2.52c8.91,2.25,17.13,5.65,22.24,13.9c2.41,3.89,3.66,8.24,4.4,12.76c0.92,5.66,0.54,11.43,1.19,17.06   c0.63,5.41,2.97,10.6,4.2,15.96c1.79,7.8,2.35,15.8,3.12,23.76c0.45,4.62,1.29,9.24,0.91,13.88c-0.35,4.33,1.55,8.03,2.74,11.93   c1.94,6.34,3.8,12.68,5.49,19.1c3.11,11.74,2.07,23.58,2.27,35.4c0.09,5.17-0.43,10.32-0.02,15.51c0.4,5.05,1.63,9.85,3.13,14.63   c2.31,7.33,2.68,14.64-0.13,21.96c-2.13,5.54-4.17,11.12-8.01,15.79c-2.69,3.27-6.18,5.58-9.99,7.19c-1.62,0.68-4.02,1.27-5.5-0.75   c-1.46-1.98-1.36-4.33-0.42-6.42c3.29-7.36,5.02-14.98,4.5-23.06c-0.1-1.54-0.44-3.4-1.88-3.76c-1.64-0.4-1.83,1.74-2.26,2.8   c-0.87,2.12-1.36,4.41-1.81,6.68c-0.22,1.11-0.79,1.81-1.61,2.39c-0.25,0.18-0.74,0.03-1.12,0.03c0.05-0.3,0-0.71,0.17-0.87   c2.12-1.94,1.7-4.83,2.26-7.18c0.66-2.78,2.52-4.4,3.92-6.47c0.71-1.04,1.84-0.93,2.23,0.44c1.86,6.57,2.17,13.1,0.33,19.83   c-0.98,3.59-2.04,7.07-3.53,10.47c-0.6,1.37-0.64,3.13,0.83,4.36c1.38,1.16,2.78,0.86,4.16,0.09c8.48-4.72,12.65-12.43,15.96-21.27   c3.66-9.78,0.96-18.7-1.31-27.96c-1.1-4.47-1.56-9.1-2.28-13.67c-0.24-1.54-0.6-1.39-1.54-0.36c-2.29,2.5-4.97,2.48-7.6,0.63   c-5.07-3.56-8.44-8.67-11.77-13.7c-2.72-4.11-5.46-8.22-7.75-12.65c-1.65-3.19-2.24-6.6-2.7-9.86c-0.7-4.9-0.32-9.98-0.13-14.97   c0.08-2.16,1.62-2.47,3.08-1.06c1.72,1.67,3.23,3.56,4.78,5.4c1.05,1.25,2.21,2.46,3.96,1.99c1.8-0.49,1.85-2.09,2.18-3.75   c0.99-5.02,2.93-9.78,5.44-14.19c1.3-2.27,2.68-0.44,3.36,1.05c2.57,5.69,4.18,11.6,5.37,17.79   C248.72,286.74,250.01,294.08,249.51,300.02z"/>
	<path class="st0" d="M108.93,224.03c-4.38,0.45-9.43-0.76-14.26-2.67c-4.71-1.86-7.94-5.59-8.31-10.56   c-0.62-8.19-4.61-14.94-8.13-21.93c-1.62-3.22-2.21-5.95,0.64-8.97c6.21-6.58,10.73-14.39,15.47-22.04c2-3.23,5.67-4.14,9.22-3.71   c5.58,0.68,11.17,1.6,16.62,2.95c6.92,1.72,11.81,6.06,13.87,13.06c2.28,7.76,4.1,15.66,3.52,23.8   c-0.52,7.26-0.33,14.83-5.51,20.89c-3.45,4.04-7.96,6.41-12.88,8.22C116.07,224.21,112.96,223.91,108.93,224.03z"/>
	<path class="st0" d="M146.14,192.42c-0.62-4.64-0.16-10.35,1.15-15.77c1.48-6.12,3.17-12.66,8.96-16.38   c3.63-2.33,7.89-3.61,12.23-4.27c3.17-0.48,6.46-0.53,9.48-1.48c5.56-1.75,10.61,2.24,12.45,5.74c3.33,6.32,7.33,12.19,12.15,17.47   c3.03,3.32,3.51,8.09,1.49,12.58c-1.9,4.24-4.32,8.22-5.89,12.64c-0.87,2.46-1.07,5.06-1.37,7.45   c-0.86,6.88-7.73,11.39-12.59,12.52c-4.27,1-8.64,1.31-13.04,1.09c-10.55-0.55-18.71-5.06-23.41-14.71   C145.33,204.34,146.12,198.8,146.14,192.42z"/>
	<path class="st1" d="M386.44,336.66c-0.43,7.34-2.83,14.83-11.22,18.66c-8.96,4.1-17.97,4.05-26.01-2.04   c-7.63-5.78-10.76-13.75-9.56-23.46c0.75-6.05,3.47-11.52,4.49-17.44c0.5-2.93,0.55-5.94,0.75-8.91c0.12-1.9,0.01-3.83,0.23-5.72   c0.92-7.8,4.9-8.5,14.3-7.08c12.52,1.9,19.62,9.78,23.06,21.68C384.68,319.95,386.19,327.6,386.44,336.66z"/>
	<path class="st1" d="M437.8,332.44c-0.3,4.57,0.8,9.23-1.4,13.7c-4.04,8.21-16.61,13.68-25.48,11.38   c-7.29-1.89-13.58-4.62-16.54-12.25c-2.24-5.76-2.43-11.74-1.37-17.6c1.41-7.85,2.86-15.76,6.67-22.98   c4.45-8.44,11.48-12.88,20.76-14.25c3-0.44,5.94,0.12,8.9,0.09c2.55-0.03,4.56,3.02,4.46,7.03c-0.16,5.85,0.04,11.74,1.71,17.29   C437.26,320.66,438.31,326.4,437.8,332.44z"/>
	<path class="st2" d="M375.35,247.77c0.56,2.73-1.24,4.22-2.94,5.69c-5.7,4.94-10.06,10.8-11.96,18.19   c-0.72,2.8-0.92,5.73-1.41,8.59c-0.1,0.62-0.12,1.45-0.94,1.59c-0.72,0.12-1.38-0.28-1.57-0.97c-2.23-7.88-7.16-14.08-11.7-20.73   c-4.72-6.9-5.85-15.72-8.52-23.71c-2.26-6.74-4.54-13.47-6.58-20.28c-1.57-5.26-2.43-10.67-2.06-16.2   c0.15-2.28,0.99-3.31,3.57-2.27c3.81,1.54,7.88,1.98,11.97,1.61c4.42-0.39,7.32,1.08,9.12,5.45c4.07,9.88,10.97,18.1,16.38,27.21   C371.65,236.9,374.75,241.84,375.35,247.77z"/>
	<path class="st2" d="M451.12,203.23c0.13,7.59-2.19,14.71-4.46,21.81c-3.35,10.47-6.88,20.89-10.4,31.3   c-0.82,2.44-1.84,4.95-3.84,6.61c-4.78,3.97-6.59,9.59-8.86,14.99c-0.57,1.36-0.83,3.66-2.48,3.47c-1.71-0.2-1.21-2.5-1.35-3.9   c-0.9-8.61-4.39-15.96-10.71-21.84c-7.26-6.75-7.12-6.16-2.49-16.7c3.8-8.66,10.1-15.94,14.84-24.11c2.24-3.87,4.3-7.85,6.31-11.84   c1.26-2.5,3.13-3.78,5.91-3.71c5.16,0.13,10.27,0,15.13-2.12c1.26-0.55,2.34-0.09,2.38,1.55   C451.15,200.24,451.12,201.73,451.12,203.23z"/>
	<path class="st1" d="M112.13,389.56c-0.25,5.76-2.67,10.81-4.33,16.04c-2.8,8.81-6.86,17.1-10.72,25.48   c-1.18,2.55-1.82,5.6-1.51,8.66c0.2,1.97-0.07,3.97-2.72,4.21c-2.68,0.24-4.11-1.43-4.55-3.69c-1.49-7.68-2.91-15.38-4.47-23.05   c-2.17-10.71-2.24-21.47-0.47-32.35c1.33-8.19,3.67-15.96,7.32-23.29c2.67-5.36,6.18-10.3,8.6-15.82c1.09-2.49,2.19-4.98,3.2-7.5   c0.41-1.02,0.67-2.25,2.02-2.13c1.26,0.11,1.35,1.41,1.47,2.34c0.91,6.97,1.76,13.95,2.6,20.94c1.12,9.36,2.2,18.72,3.3,28.08   C111.96,388.21,112.06,388.95,112.13,389.56z"/>
	<path class="st1" d="M199.04,392.73c0.11,11-1.34,21.63-2.74,32.2c-0.72,5.45-1.75,11.01-3.22,16.4c-0.58,2.11-1.82,2.7-3.82,2.69   c-2.21-0.01-3.24-1.61-3.09-3.16c0.86-8.76-4.65-15.33-7.62-22.73c-2.54-6.34-4.25-12.99-7.03-19.18   c-3.13-6.96-1.63-13.9-0.75-20.74c1.2-9.33,2.28-18.67,3.51-28c0.57-4.3,0.96-8.68,1.88-12.94c0.15-0.71,0.24-1.62,1.23-1.62   c0.84,0,1.33,0.64,1.56,1.4c2.19,7.33,6.02,13.84,9.78,20.43C194.21,367.09,200.05,380.77,199.04,392.73z"/>
	<path class="st0" d="M377.38,163.69c-1.54,4.93-1.23,10.71-0.92,16.41c0.46,8.38,1.4,16.74,3.18,24.97   c0.09,0.4,0.22,0.81,0.21,1.22c-0.02,11.38,1.67,22.71,1.03,34.11c-0.07,1.19,0.04,2.66-1.37,2.82c-1.25,0.14-1.75-1.12-2.17-2.3   c-3.55-9.93-8.58-19.08-14.98-27.44c-5.97-7.81-9.24-16.52-10.02-26.34c-0.51-6.42-0.86-12.95-3.59-18.98   c-0.58-1.28,0.02-1.66,1.2-1.65c8.87,0.09,17.18-2.27,25.23-5.8C376.82,159.98,377.42,160.66,377.38,163.69z"/>
	<path class="st0" d="M86.57,627.53c-4.91-0.1-9.23,0.34-13.4-1.05c-2.45-0.82-4.21-2.55-4.76-4.94c-0.45-1.97,1.73-2.33,3.05-3.03   c7.31-3.91,12-10.54,17.27-16.58c6.96-7.97,6.17-17.18,4.71-26.68c-0.59-3.84-1.18-7.68-1.75-11.52   c-0.98-6.59-1.89-13.19-2.79-19.8c-0.61-4.49-1-9.01-1.77-13.47c-0.93-5.42-2.54-10.74-3.14-16.18c-0.8-7.26-2.16-14.47-0.71-21.96   c0.95-4.89,1.52-9.91,2.98-14.64c1.93-6.24-0.63-11.88-1.28-17.8c-0.59-5.36-2.35-10.68-0.54-16.25c1.18-3.64-0.46-7.39-1.3-10.93   c-1.57-6.61-3.68-13.04-4.59-19.86c-1.82-13.62-0.85-27.26-0.68-40.86c0.11-8.87,0.53-17.89,2.42-26.62   c1.77-8.18,3.78-16.31,6.6-24.24c1.41-3.95,1.49-8.38,2.19-12.59c1.2-7.23,1.99-14.56,3.71-21.66c2.77-11.46,1.01-22.1-3.71-32.7   c-2.45-5.5-4.09-11.4-5.44-17.33c-0.08-0.36-0.25-0.94-0.48-0.99c-0.75-0.18-1.01,0.53-1.15,1.04c-0.66,2.54-1.32,5.08-1.84,7.65   c-1.16,5.72-2.46,11.44-5.94,16.24c-3.66,5.04-3.71,10.42-3.2,16.33c0.76,8.74-1.55,16.98-5.44,24.89   c-2.95,5.99-7.11,11.28-9.36,17.69c-2.66,7.58-2.79,14.27,2.27,21.26c3.93,5.44,3.64,12.38,2.94,18.99   c-0.08,0.74-0.26,1.48-0.26,2.22c0,1.57-0.01,3.15-2.08,3.34c-2.03,0.19-3.83,0.14-5-2.2c-1.28-2.55-0.38-5.48-1.86-7.93   c-0.57-0.94-1-2.19-2.17-2.06c-1.09,0.12-1.22,1.41-1.42,2.39c-0.99,4.8-0.57,9.59,0.31,14.34c0.82,4.44,2.06,8.75,3.95,12.91   c0.78,1.72,0.82,3.97-1.08,5.73c-2.43,2.24-4.56,0.82-6.79-0.11c-0.44-0.18-0.76-0.65-1.19-0.89c-1.3-0.72-3.03-0.9-3.34-2.81   c1.71-0.18,2.91,0.9,4.24,1.69c0.78,0.47,1.65,0.78,2.39,1.29c1.16,0.8,2.22,0.99,3.41,0.06c1.25-0.97,1.52-2.39,1.03-3.6   c-1.75-4.36-3.24-8.8-4.09-13.4c-1.25-6.72-1.85-13.51,0.92-20.02c0.76-1.79,1.96-0.46,2.7,0.37c2.78,3.14,3.9,7.03,4.46,11.04   c0.26,1.92,1.34,1.71,2.6,1.74c1.53,0.03,2.03-0.75,2.02-2.18c-0.04-4.08,0.46-8.24-0.15-12.23c-0.56-3.66-1.95-7.33-4.35-10.32   c-4.02-5-3.16-10.46-2-16.06c2.04-9.77,9.09-17.12,12.51-26.23c1.99-5.29,3.11-10.73,3.49-16.36c0.38-5.59-1.16-11.31,1.01-16.76   c1.22-3.05,3.54-5.47,4.81-8.6c1.32-3.24,2.1-6.57,3.02-9.87c1.09-3.94,1.79-7.99,2.64-11.99c0.13-0.61,0.32-1.14,0.99-1.29   c0.9-0.2,1.39,0.47,1.85,1.03c1.4,1.67,1.47,3.9,1.94,5.83c1.89,7.93,4.89,15.46,7.73,23.04c2.85,7.63,2.67,15.24,0.78,23.08   c-1.34,5.57-1.76,11.36-2.77,17.02c-1.43,8.01-2.78,16.05-4.65,23.96c-1.52,6.45-4.01,12.66-5.55,19.1   c-0.89,3.74-1.04,7.74-1.19,11.57c-0.61,15.85-1.9,31.7-1.07,47.56c0.4,7.75,1.52,15.43,4.09,22.89c1.73,5.03,2.6,10.37,2.37,15.83   c-0.32,7.79,0.36,15.45,2.24,23.11c1.28,5.2,0.19,10.72-1.15,15.92c-2.37,9.21-3.62,18.42-1.91,27.9c0.88,4.86,1.47,9.77,2.3,14.64   c1.02,5.99,2.44,11.93,3.15,17.96c0.5,4.26,1.09,8.49,1.76,12.73c1.14,7.21,2.02,14.47,3.21,21.68c0.88,5.31,2.59,10.78,0.27,16.13   c-1.91,4.41-4.67,8.36-7.54,12.2c-4.46,5.96-9.68,11.11-16.31,14.67c-0.71,0.38-1.64,0.82-1.32,1.84c0.52,1.61,1.71,2.72,3.34,3.09   c6.02,1.35,12.19,1.36,18.28,1.41c3.06,0.03,5.82-2.38,8.71-3.71c3.69-1.7,7.78-1.85,11.73-2.56c4.75-0.86,6.44-3.36,5.54-7.99   c-3.58-18.41-4.8-37-3.72-55.67c0.38-6.58,0.99-13.23,2.94-19.77c1.69-5.65,3.12-11.48,4.13-17.41c1.2-7.05,1.37-14.03,1.18-21.05   c-0.21-7.55-0.97-15.09-3.51-22.32c-0.67-1.92-0.39-3.71,0.41-5.73c2.11-5.33,3.95-10.88,4.07-16.63   c0.16-7.72,0.64-15.4,2.25-22.92c1.2-5.61,3.27-11.03,4.53-16.63c1.22-5.44,2-10.99,2.78-16.52c1.16-8.22,2.35-16.45,3.13-24.71   c0.45-4.76,1.72-9.45,1.39-14.27c-0.13-1.86,0.67-2.64,2.5-2.42c0.62,0.07,1.16,0.26,1.35,0.91c0.22,0.79-0.36,1-0.95,1.17   c-1.34,0.38-1.33,1.41-1.43,2.55c-0.57,6.16-1.65,12.28-2.24,18.41c-0.69,7.25-1.43,14.48-2.74,21.64   c-0.98,5.38-2.11,10.76-3.05,16.11c-1.42,8.14-5.14,15.7-5.09,24.23c0.04,7.56-0.75,15.2-2.51,22.61c-0.42,1.78-0.92,3.71-1.9,5.51   c-1.11,2.06-1.64,4.41-0.71,7.27c3.06,9.34,3.89,19.21,3.54,28.9c-0.31,8.55-1.46,17.13-3.91,25.55   c-2.06,7.1-3.73,14.38-4.08,22.01c-0.41,8.96-0.95,17.92-0.7,26.89c0.23,8.06,0.81,16.14,2.88,24.01c1.18,4.49,0.42,9.1,0.42,13.64   c0,2-1.98,4.05-3.89,3.93c-6.93-0.43-12.84,2.19-18.66,5.32C93.05,628.5,89.41,626.84,86.57,627.53z"/>
	<path class="st0" d="M398.94,214.28c0.64-6.36,1.69-15.85,3.02-25.35c0.85-6.1,2.8-12.52,0.58-18.95   c-0.88-2.54,0.09-5.43-0.51-8.17c-0.26-1.16,0.86-1.5,1.9-1c5.96,2.86,12.35,4.31,18.79,5.51c1.93,0.36,3.98,0.2,5.97,0.17   c1.58-0.02,1.93,0.82,1.52,2.07c-1.11,3.41-1.96,6.84-2.64,10.39c-0.92,4.84-0.64,9.72-1.6,14.54c-1.17,5.86-3.28,11.24-6.57,16.08   c-4.78,7.04-9.83,13.88-13.53,21.6c-1.38,2.88-2.97,5.64-3.67,8.84c-0.23,1.03-1.02,2.56-2.49,2.35c-1.41-0.19-0.68-1.62-0.83-2.51   C397.6,232.38,398.87,224.92,398.94,214.28z"/>
	<path class="st0" d="M416.36,70.45c0.03,3.52,0.24,6.8,1.7,10.31c1.92,4.62,0.36,9.94-2.4,13.89c-3.19,4.58-3.86,9.95-6.19,14.74   c-0.74,1.52-2.81,2.71-1.92,4.86c2.36,5.76,4.09,11.89,9.65,15.7c9.84,6.74,20.49,12.05,31.23,17.08c4.05,1.9,8.89,2.19,13.19,3.91   c6.85,2.75,12.43,6.66,15.85,13.58c3.21,6.5,3.66,13.45,4.2,20.35c0.55,7.02,1.52,13.81,3.8,20.54c1.64,4.85,2.16,10.13,2.74,15.27   c1.11,9.8,1.63,19.64,2.24,29.48c0.24,3.84,2.52,7.54,3.79,11.33c1.9,5.68,3.27,11.5,4.58,17.35c2.31,10.31,1.8,20.74,2,31.16   c0.04,2.33-1.05,4.29-1.13,6.57c-0.37,10.51,2.45,20.42,5.29,30.34c1.64,5.74,0.63,11.21-1.08,16.78   c-1.09,3.56-2.75,6.82-4.22,10.18c-2.69,6.15-7.71,10.13-13.28,13.35c-1.48,0.86-3.95,1-5.65-0.52c-1.61-1.45-1.83-3.06-1.14-5.32   c1.42-4.69,3.61-9.16,4.25-14.07c0.56-4.27,1.01-8.55-0.32-12.79c-0.72-2.29-1.72-1.54-2.64-0.2c-1.43,2.1-1.62,4.62-2.1,7.02   c-0.18,0.88,0,1.79-0.64,2.6c-0.66,0.84-1.26,2.22-2.45,1.28c-1.06-0.84,0.31-1.53,0.81-2.18c1.49-1.95,0.2-4.61,1.72-6.57   c0.43-0.55,0.47-1.38,0.8-2.02c0.92-1.76,2.05-4.41,3.87-4.02c2.31,0.49,2.57,3.57,2.77,5.69c0.77,8.29-0.69,16.27-4.06,23.91   c-0.84,1.91-1.76,3.98,0.2,5.74c1.95,1.74,3.62,0.32,5.39-0.67c8-4.48,11.65-12.03,14.62-20.18c1.35-3.69,2.07-7.49,2.35-11.33   c0.33-4.59-1.73-8.82-2.72-13.22c-1.65-7.29-2.87-14.62-2.79-22.17c0.12-11.73,0.81-23.5-0.54-35.17   c-0.63-5.49-2.62-10.8-3.99-16.19c-2.26-8.92-6.5-17.25-6.09-27.02c0.47-11.14-1.16-22.4-4.07-33.13   c-2.66-9.83-4.03-19.58-4.32-29.7c-0.34-11.89-9.14-22.5-20.76-25.37c-9.67-2.39-18.53-6.36-27.11-11.3   c-4.12-2.37-8.16-4.94-12.36-7.08c-6.83-3.48-9.42-9.8-12.64-15.98c-2.61-4.99,1.71-7.95,2.58-11.89c1.07-4.82,3.8-8.82,5.76-13.19   c2.12-4.73,3.34-9.9-0.31-14.74c-0.75-1-0.46-2.25-0.47-3.41c-0.05-6.12,0.62-12.39-1.58-18.22c-2.91-7.7-8.98-11.8-16.84-13.87   c-5.87-1.55-11.42-1.16-16.91,1.1c-8.17,3.36-14.14,9.15-14.74,19.45c-0.29,4.87-1.02,9.73-0.9,14.63c0.01,0.4,0,0.92-0.22,1.2   c-4.09,4.97-1.87,10.37,0.52,14.5c3.3,5.71,4.45,12.25,8,17.73c1.24,1.92,0.4,3.8,0.01,5.53c-0.65,2.85-1.78,5.61-2.92,8.32   c-2.69,6.42-8.99,8.53-14.41,11.48c-7.73,4.22-15.64,8.14-23,12.98c-3.73,2.45-8,2.45-12.01,3.6c-8.16,2.36-14.01,7.11-16.92,15.22   c-2.79,7.8-2.87,15.99-3.55,24.12c-0.5,6-2.81,11.64-4.37,17.43c-0.67,2.48-1.24,5.09-1.37,7.48c-0.39,7.03-1.31,14.02-1.4,21.09   c-0.06,4.37,0.99,8.93-0.65,13.24c-1.4,3.68-2.99,7.3-4.38,10.98c-2.84,7.55-4.16,15.39-4.81,23.44   c-0.78,9.65-0.34,19.3-0.38,28.94c-0.04,9.38-0.49,18.77-2.77,27.82c-1.5,5.94-2.83,11.8-2.18,17.81   c0.83,7.68,2.12,15.35,7.92,21.26c0.37,0.38,1.13,0.78,0.63,1.41c-0.48,0.6-1.05,0.05-1.51-0.28c-3.29-2.38-4.41-6.22-5.78-9.63   c-2.97-7.39-4.39-15.39-2.25-23.11c5.62-20.25,4.08-40.89,4.49-61.46c0.16-7.96,1.82-15.77,4.08-23.49   c1.61-5.49,4.32-10.47,6.04-15.86c0.25-0.77,0.27-1.63,0.27-2.45c0.02-5.5-0.04-11,0.02-16.5c0.09-7.96,1.06-15.82,3.42-23.43   c3.06-9.85,3.38-20.08,4.68-30.19c1.34-10.44,5.77-19.2,16.14-23.85c5.63-2.53,12.05-2.54,17.42-5.86   c3.78-2.34,7.7-4.44,11.57-6.61c5.11-2.86,10.06-6.07,15.39-8.43c5.59-2.47,7.7-7,9.99-12.15c2.43-5.47-0.45-9.61-1.57-14.35   c-1.14-4.8-4.67-8.37-6.02-12.87c-1.38-4.6-2.66-9.14-0.17-14.33c1.68-3.5,0.69-8.23,1.1-12.39c0.56-5.63,1.05-11.28,4.79-16.03   c3.54-4.5,8.38-6.86,13.49-8.87c3.71-1.45,7.63-1.27,11.47-1c9.41,0.66,22.71,8.6,23.35,20.79   C415.71,63.67,416.31,67.06,416.36,70.45z"/>
	<path class="st0" d="M463.3,277.11c-1.09,7.8,0.59,15.23,3.67,22.25c2.01,4.57,5.11,8.66,7.54,13.06   c3.73,6.78,5.11,14.15,4.14,21.77c-0.54,4.27-3.57,7.73-5.09,11.71c-1.16,3.03-1.36,6.23-1.07,9.47c0.27,3.05,0.48,6.1,0.68,9.16   c0.02,0.26-0.25,0.76-0.4,0.76c-0.36,0.01-0.84-0.1-1.07-0.35c-0.25-0.27-0.37-0.75-0.37-1.14c-0.04-4.71,0.2-9.44-0.13-14.12   c-0.32-4.41,2.31-7.48,4.17-10.91c2.73-5.05,2.18-10.28,1.39-15.61c-1.29-8.76-7.58-15.08-10.94-22.81   c-4.27-9.84-6.34-20.06-3.95-30.84c0.62-2.79-0.56-5.55-2.35-7.4c-5.66-5.88-9.88-12.35-10.66-20.68   c-0.07-0.76-0.08-1.59-1.02-1.78c-1.13-0.23-1.16,0.89-1.34,1.46c-2.55,7.82-6.11,15.29-7.74,23.43c-0.54,2.67-0.81,5.49-1.61,7.96   c-1.55,4.79-0.45,9.39,0.45,13.75c1.64,7.97,2.75,16.04,4.39,24.02c1.32,6.4,2.53,12.84,3.92,19.23c1.2,5.5,3.24,10.84,4.12,16.38   c0.58,3.65,1.43,7.27,1.82,10.97c1.85,17.47,0.68,34.99,0.91,52.48c0.07,5.18-1.69,10.17-3.05,15.16   c-2.01,7.32-3.87,14.6-2.99,22.39c0.66,5.87-0.52,11.76-2.14,17.38c-1.59,5.5-1.17,10.66,0.37,16.01   c1.78,6.16,3.08,12.52,3.24,18.91c0.13,5.57-0.83,11.18-1.98,16.69c-0.72,3.47-1.3,6.98-1.84,10.48   c-1.1,7.15-2.17,14.31-3.19,21.48c-0.83,5.86-1.25,11.8-2.43,17.59c-1.31,6.39-2.4,12.74-2.51,19.3   c-0.07,4.34-0.12,8.56,2.39,12.31c4.67,6.99,9.85,13.54,16.36,18.95c1.62,1.35,3.5,2.17,5.32,3.13c2.08,1.09,2.71,2.37,0.8,4.47   c-2.59,2.85-5.69,3.99-9.42,3.95c-4.74-0.05-9.49-0.07-14.23,0.01c-2.09,0.04-3.89-0.73-5.53-1.78c-4.21-2.67-8.62-4.42-13.72-4.28   c-4.84,0.13-6.66-1.92-6.86-6.68c-0.26-6.37,1.57-12.46,2.11-18.65c0.79-9.07,3.04-18.25,0.59-27.44   c-0.15-0.55-0.16-1.15-0.16-1.73c-0.06-7.36-1.12-14.58-2.27-21.85c-1.07-6.74-2.42-13.44-3.94-20.02   c-2.12-9.17-2.64-18.33-2.2-27.58c0.32-6.74,1.58-13.43,2.15-20.17c0.35-4.18,0.39-8.33-0.38-12.6c-0.7-3.93-1.96-7.79-1.92-11.91   c0.07-8.45-1.36-16.71-3.1-24.99c-1.57-7.45-4.27-14.59-5.02-22.29c-0.65-6.61-1.82-13.19-2.49-19.84   c-0.9-8.96-1.38-17.94-2.23-26.9c-0.09-0.99-2.42-2.83,0.07-3.08c2.19-0.22,1.19,2.26,1.3,3.56c0.67,7.91,1.74,15.79,2.29,23.68   c0.55,7.85,1.59,15.61,2.78,23.36c0.65,4.22,1.73,8.37,2.68,12.54c1.56,6.87,3.65,13.56,4.46,20.66   c0.66,5.81-0.07,11.71,1.06,17.34c1.17,5.85,2.66,11.58,2.22,17.57c-0.44,6-1.58,11.95-2.15,17.92c-0.73,7.65-1,15.45,0.28,23.13   c0.84,5.01,1.62,10.07,2.99,14.95c1.43,5.07,2.24,10.25,3.08,15.38c0.69,4.21,1.36,8.48,1.7,12.76   c1.02,12.72,2.16,25.48-0.38,38.15c-1.17,5.84-2.01,11.66-2.13,17.65c-0.07,3.82,2.43,5.95,4.81,5.81   c6.5-0.38,11.8,2.27,17.31,4.84c5.74,2.68,11.75,1.02,17.62,0.55c2.06-0.17,4.29-0.39,6.16-1.63c1.88-1.25,2.43-2.45,0.11-3.86   c-10.42-6.36-18.04-15.31-23.15-26.26c-1.48-3.18-1.95-6.83-1.09-10.78c0.85-3.89,1.13-8,1.78-12c1.06-6.51,1.73-13.07,2.67-19.6   c1.07-7.42,2.21-14.84,3.39-22.24c1.41-8.87,2.98-17.71,4.32-26.58c0.8-5.27-0.87-10.36-1.75-15.47   c-1.08-6.32-3.43-12.49-2.54-19.04c0.68-4.97,2.26-9.79,2.15-14.89c-0.04-1.65,0.53-3.36,0.24-4.94   c-1.12-6.16,0.45-11.93,1.93-17.8c2.67-10.56,5.13-21.12,4.72-32.2c-0.38-10.48,0.3-21.01-0.22-31.49   c-0.35-7.02-1.46-14.03-3.01-20.97c-1.28-5.74-2.29-11.59-3.97-17.21c-1.88-6.3-2.96-12.74-4.14-19.14   c-0.58-3.15-1.05-6.34-1.68-9.51c-1.06-5.31-2.13-10.63-2.75-16c-0.75-6.6-0.19-13.1,1.31-19.68c1.99-8.75,6.18-16.68,8.48-25.27   c0.45-1.67,0.95-4.45,2.63-4.22c1.91,0.25,2.06,3.05,2.2,4.95c0.47,6.41,2.15,12.55,6.76,17c4.6,4.45,7.09,9.2,6.29,15.6   C463.14,273.92,463.3,275.52,463.3,277.11z"/>
	<path class="st0" d="M77.81,227.13c-1.99,11.24-4.8,21.67-12.52,29.96c-3.42,3.67-7.46,3.29-11.28-1.12   c-3.69-4.27-5.59-9.3-5.35-15.11c0.2-4.86-0.59-9.84,0.17-14.6c2.08-13.07,7.4-24.65,17.51-33.63c0.46-0.41,0.89-1.31,1.6-0.77   c0.69,0.53,1.09,1.36,1.3,2.32c0.59,2.75,0.45,5.57,1.12,8.35c0.99,4.11,3.48,7.58,4.36,11.71   C75.66,218.69,76.83,223.09,77.81,227.13z"/>
	<path class="st2" d="M424.31,400.39c0.41,11.27-0.06,23.57-2.34,35.67c-1.3,6.91-3.16,13.78-6.25,20.2   c-0.84,1.75-0.52,5.08-3.12,4.63c-2.17-0.37-1.67-3.56-2.13-5.57c-1.95-8.63-0.76-17.56-2.48-26.19c-0.93-4.66-2.47-9.2-3.58-13.83   c-1.48-6.18,0.01-12.21,0.9-18.32c0.81-5.61,2.13-11.05,3.86-16.4c1.23-3.81,2.46-7.75,5.34-10.7c2.63-2.69,5.66-1.79,6.35,1.91   C422.56,380.91,423.97,390.07,424.31,400.39z"/>
	<path class="st0" d="M206.07,227.18c-0.4-7.42,2.62-13.89,5.04-20.52c1.4-3.84,2.97-7.64,2.95-11.85   c-0.01-0.97-0.24-2.06,1.01-2.55c1.34-0.52,2.3,0.24,3.06,1.11c4.96,5.6,9.46,11.61,12.18,18.56c3.32,8.48,5.21,17.43,4.65,26.61   c-0.43,7.12-1.46,14.19-7.75,19.11c-2.91,2.27-5.49,2.5-8.2,0.05c-5.31-4.79-8.4-10.86-10.58-17.59   C207.03,235.84,205.79,231.62,206.07,227.18z"/>
	<path class="st0" d="M496.38,301.9c0.54,3.73-1,9.23,0.67,14.67c0.44,1.42-0.58,3.54-2.18,4.46c-2.02,1.16-4.21,1.35-6.34-0.04   c-4.88-3.18-7.74-8.15-10.99-12.7c-4.12-5.77-8.13-11.68-10.42-18.46c-0.83-2.45-1.1-5.15-1.26-7.76   c-0.21-3.4-0.06-6.82-0.05-10.24c0-1.39-0.36-3.08,1.37-3.65c1.75-0.58,2.67,0.87,3.6,2.04c1.24,1.56,2.47,3.11,3.69,4.68   c1.04,1.35,2.49,1.31,3.86,0.94c1.35-0.36,1.32-1.62,1.5-2.83c0.77-5.32,2.84-10.2,5.56-14.78c1.02-1.72,2.37-1.61,3.35,0.32   c3.54,6.97,4.6,14.57,6.24,22.1C496.41,287.21,496.02,293.69,496.38,301.9z"/>
	<path class="st0" d="M314.94,276.52c0.24,10.53-3.37,19.71-9.39,28.21c-3.63,5.13-7.06,10.39-11.74,14.66   c-2.08,1.9-4.38,3.73-7.32,2.04c-2.99-1.72-3.45-4.48-2.69-7.78c1.49-6.44,1.28-12.96,0.82-19.54c-0.4-5.7,0.22-11.45,1.55-17.1   c1.41-5.98,2.62-11.98,5.26-17.59c0.53-1.13,1.06-2.12,2.3-2.36c1.36-0.26,1.59,1.06,1.97,1.88c2.07,4.53,3.91,9.15,5.16,13.98   c0.29,1.1-0.41,2.7,1.44,3.02c1.9,0.34,3.42-0.39,4.58-1.87c1.33-1.69,2.58-3.45,3.93-5.13c0.55-0.68,1.09-1.63,2.2-1.32   c0.92,0.25,1.12,1.17,1.37,1.95C315.11,271.86,314.98,274.2,314.94,276.52z"/>
	<path class="st1" d="M311.52,245.21c0.46-5.65-0.38-11.99-3.51-17.88c-0.81-1.52-1.57-3.23-3.67-3.29   c-2.01-0.06-2.73,1.59-3.69,2.93c-2.58,3.58-1.9,7.59-1.44,11.51c0.32,2.76,0.36,5.45-0.41,8.13c-0.16,0.55-0.3,1.19-1.01,1.28   c-0.69,0.09-1.04-0.35-1.26-0.96c-4.5-12.37-4.04-24.67,1.21-36.61c1.75-3.97,5.39-6.72,8.89-9.5c4.52-3.58,8.64-7.75,11.82-12.68   c0.56-0.87,1.03-2.22,2.31-1.81c1.17,0.38,1.64,1.66,1.58,2.89c-0.34,6.25,0.44,12.43,1.11,18.61c0.21,1.95,0.57,3.92,1.14,5.8   c1.63,5.39,2.04,10.64,0.35,16.21c-2.02,6.67-2.38,13.86-6.4,19.87c-1.29,1.92-2.73,3.74-4.12,5.58c-0.44,0.58-0.84,1.36-1.76,1.1   c-0.98-0.28-1.13-1.18-1.14-2.01C311.49,251.63,311.52,248.88,311.52,245.21z"/>
	<path class="st1" d="M479.84,241.4c-0.44-3.83,0.94-7.37-0.04-10.91c-0.2-0.71-0.21-1.56-0.61-2.12c-1.32-1.82-2.24-4.71-4.98-4.22   c-3.2,0.57-3.86,3.97-4.79,6.47c-2.53,6.85-3.3,13.98-2.2,21.28c0.24,1.57,0.82,3.94-0.78,4.59c-1.37,0.56-2.33-1.64-3.3-2.82   c-4.99-6.07-6.76-13.37-8.4-20.83c-1.29-5.9-2.75-11.59-0.94-17.69c2.54-8.53,2.79-17.39,3.1-26.23c0.03-0.97,0.06-2.41,1.35-2.66   c1.04-0.2,1.35,1.02,1.88,1.74c3.68,5.08,8.07,9.55,12.98,13.32c7.1,5.44,11.08,12.36,11.57,21.19c0.28,5.1,1.88,10.19,0.55,15.31   c-0.76,2.94-1.9,5.78-2.88,8.67c-0.21,0.6-0.29,1.48-1.2,1.26c-0.77-0.18-1.27-0.85-1.29-1.66   C479.8,244.44,479.84,242.78,479.84,241.4z"/>
	<path class="st2" d="M392.14,173.69c0,19.23,0.34,38.47-0.11,57.69c-0.32,13.57-0.18,27.13-0.46,40.69   c-0.25,11.63-0.65,23.25-1.02,34.88c-0.03,1.05,0.02,2.55-1.38,2.52c-1.53-0.03-1.1-1.63-1.15-2.6   c-0.78-14.94-1.01-29.9-1.05-44.87c-0.03-8.91,0.08-17.83-0.3-26.72c-1.31-31.36-1.18-62.73-0.9-94.1   c0.08-9.45,0.87-18.9,1.6-28.34c0.12-1.48-0.27-4.42,1.99-4.35c2.02,0.06,1.53,2.86,1.65,4.38c0.7,9.18,1.4,18.38,1.62,27.59   c0.27,11.07,0.06,22.15,0.06,33.23C392.51,173.69,392.32,173.69,392.14,173.69z"/>
	<path class="st0" d="M343.97,163.23c-4.21-1.2-8.85-1.42-12.09-5.14c-1.41-1.61-1.96-3-0.02-4.86c4.32-4.14,9.96-5.5,15.19-7.75   c12.29-5.3,23.18-12.25,29.53-24.68c0.56-1.09,1.42-2.04,2.25-2.96c1.26-1.4,2.98-0.98,4.46-0.69c1.58,0.31,1.19,1.88,1.06,2.94   c-0.7,5.94-1.53,11.82-3.06,17.67c-1.25,4.78-2.75,9.63-2.86,14.68c-0.03,1.36-0.26,2.48-1.6,3.08c-2.87,1.27-5.63,3.08-8.64,3.69   C360.22,160.82,352.16,161.91,343.97,163.23z"/>
	<path class="st2" d="M425.55,423.59c0-12.93,0.21-24.72-0.1-36.5c-0.13-4.84-1.42-9.64-2.1-14.47c-0.25-1.77-1.87-3.92,0.33-5.26   c2.28-1.39,4.64-0.18,6.79,0.92c3.82,1.94,5.01,5.54,5.09,9.36c0.27,12.97,1.51,25.83,4.39,38.48c1.42,6.23,1.8,12.38,1.18,18.71   c-0.64,6.53,1.03,13.09-0.03,19.64c-0.21,1.31-0.29,2.63-0.46,3.94c-0.17,1.28-0.52,2.73-2.05,2.67c-1.51-0.05-1.99-1.51-2.42-2.82   c-1.48-4.53-1.46-9.44-3.46-13.85c-1.36-2.99-2.5-6.09-4.03-8.98C426.51,431.33,424.41,427.3,425.55,423.59z"/>
	<path class="st0" d="M395.37,123.39c0-1.4-0.09-2.41,0.02-3.39c0.11-0.99-0.64-2.43,0.75-2.84c1.41-0.42,2.81-0.26,4.14,0.92   c2.68,2.39,3.67,5.83,5.73,8.63c4.24,5.76,9.61,10,15.59,13.58c6.19,3.71,12.99,6.15,19.66,8.83c1.74,0.7,3.35,1.82,4.84,2.98   c3.07,2.39,2.88,5.36-0.44,7.47c-5.19,3.3-10.75,4.02-16.79,2.75c-5.69-1.2-11.54-1.65-17.21-2.93c-3.3-0.75-6.76-1.82-9.43-3.98   c-1.97-1.59-1.9-4.45-2.32-6.86c-0.21-1.21-0.28-2.43-0.5-3.66C398.09,137.59,394.85,130.63,395.37,123.39z"/>
	<path class="st0" d="M173.07,314.05c-0.08-4.78,2.11-9.09,2.9-13.69c0.69-4,1.02-7.97,0.84-12.02c-0.18-4.15-0.19-8.31-0.21-12.46   c-0.03-6.49,0.08-12.99-0.03-19.48c-0.12-6.84-2.76-13-5.44-19.13c-0.85-1.93-0.99-4.01-0.07-5.74c0.84-1.57,2.54-2.31,4.54-2.59   c6.01-0.83,11.98-1.93,17.95-3.02c1.23-0.23,2.59-0.9,3.58-0.1c1.17,0.95-0.21,2.05-0.37,3.1c-0.6,4.17-3.57,7.02-5.73,10.23   c-2.78,4.13-3.13,8.82-3.81,13.34c-0.83,5.54-2.3,10.91-3.34,16.37c-0.66,3.46-0.18,7.12-0.29,10.69   c-0.22,7.15,1.08,14.05,3.35,20.8c2.12,6.33-0.37,12.49-6.32,15.57c-0.8,0.42-1.64,0.76-2.46,1.15   C173.88,319.08,173.09,318.61,173.07,314.05z"/>
	<path class="st0" d="M95.55,306.85c0.09-6.4,1.89-11.43,2.68-16.62c1.21-7.99,1.71-15.87-0.28-23.84   c-1.09-4.36-1.45-8.9-2.32-13.32c-1.45-7.41-2.5-14.96-6.64-21.56c-0.95-1.51-2.44-2.52-3.18-4.33c-0.83-2.05,0.28-1.83,1.33-1.63   c5.23,0.96,10.45,2.04,15.67,3.06c0.81,0.16,1.62,0.35,2.44,0.37c6.35,0.13,8.42,3.8,5.89,9.85c-2.65,6.34-6.25,12.47-5.48,19.77   c1.12,10.54-0.44,21.07-0.07,31.62c0.24,6.92,1.73,13.55,3.52,20.17c0.54,2.01,0.5,4.22,0.47,6.34c-0.02,1.92-1.75,1.46-2.63,1.17   c-3.03-1.01-5.94-2.38-8.49-4.36C95.93,311.56,95.13,308.89,95.55,306.85z"/>
	<path class="st2" d="M355.21,502.82c0.53,11.84-2.14,22.15-8.32,31.5c-0.63,0.96-1.25,2.2-2.63,1.92   c-1.52-0.31-1.86-1.65-2.14-3.03c-1.88-9.16-3.95-18.28-5.69-27.46c-1.32-6.95-0.88-13.86,1.37-20.63   c1.53-4.62,2.89-9.29,4.37-13.93c0.94-2.96,2.63-3.26,4.9-1.12c4.59,4.31,5.82,10.05,6.72,15.85   C354.7,491.73,355.75,497.56,355.21,502.82z"/>
	<path class="st2" d="M441.59,497.8c-0.26,10.03-1.21,19.65-3.67,29.1c-0.61,2.32-1.07,4.68-1.51,7.04   c-0.22,1.2-0.71,2.15-1.97,2.17c-1.08,0.01-2.05-0.47-2.7-1.51c-8.12-13.09-9.72-27.35-7.55-42.26c0.83-5.7,1.1-11.52,3.73-16.84   c1.2-2.43,2.99-4.39,4.81-6.3c1.7-1.79,2.91-0.41,3.53,1.16c1.27,3.21,2.49,6.46,3.42,9.78   C441.32,486.01,441.37,492.07,441.59,497.8z"/>
	<path class="st0" d="M197.25,627.45c-5.76,0.41-11.21,0.12-16.29-3.43c-2.92-2.04-6.68-2.65-10.43-2.55   c-4.92,0.13-6.67-1.99-7-6.85c-0.48-7.04,1.19-13.79,2.36-20.59c1.42-8.24,1.9-16.6,0.97-24.78c-0.85-7.53-1.07-15.14-2.35-22.6   c-0.81-4.74-2.34-9.35-3.26-14.07c-2.76-14.12-5.1-28.19-2.91-42.76c1.1-7.29,2.65-14.71,1.73-22.23c-0.36-2.93-1.39-5.71-1.8-8.67   c-0.31-2.2-0.69-4.39-0.68-6.61c0.04-8.46-1.51-16.66-3.31-24.91c-2.34-10.71-5.57-21.21-6.38-32.32c-0.87-12.02-2.52-24-3.2-36.05   c-0.06-1-2.44-3.07,0.31-3.17c1.94-0.07,0.85,2.42,1.07,3.75c1.35,8.24,0.96,16.64,2.34,24.9c1.09,6.51,1.28,13.17,2.25,19.71   c0.68,4.6,2.2,9.08,2.94,13.68c0.68,4.23,2.26,8.19,3.13,12.38c1.73,8.41,2.02,16.85,2.62,25.35c0.35,4.95,1.51,10.04,2.46,15.03   c0.67,3.51-0.23,7.41-0.83,11.08c-1.16,7.11-1.75,14.24-1.97,21.43c-0.16,5.5,0.03,11.02,1.26,16.28   c1.01,4.36,2.03,8.77,3.06,13.14c0.65,2.76,1.21,5.63,1.67,8.47c2.29,14.04,3.85,28.16,3.49,42.4c-0.2,7.91-1.7,15.72-3.1,23.52   c-0.51,2.84-0.93,5.79-0.72,8.64c0.28,3.8,3.7,4.78,6.57,4.76c5.11-0.04,9.38,1.53,13.72,4.07c2.73,1.6,6.22,2.31,9.52,2.02   c4.69-0.41,9.45-0.21,14.05-1.43c1.26-0.33,2.25-1.06,3.13-1.93c1.07-1.05,1.29-1.82-0.4-2.82c-9.97-5.9-17.04-14.65-22.86-24.41   c-1.89-3.16-1.57-7.04-1.57-10.8c0.01-7.69,1.55-15.16,2.83-22.63c1.53-8.91,2.56-17.89,4.03-26.8c1.03-6.22,2.06-12.48,2.92-18.75   c0.83-6.04,1.91-12.02,1.97-18.15c0.06-5.5-0.92-10.85-2.51-16.01c-2.26-7.35-2.28-14.41-0.08-21.82   c1.38-4.63,1.48-9.72,0.95-14.58c-0.64-5.82,0.36-11.45,1.99-16.81c3.38-11.13,5.07-22.36,4.66-33.97   c-0.05-1.39-0.96-3.99,0.89-4.01c1.7-0.02,1,2.61,1,4.07c-0.02,9.52-0.4,19.13-3.21,28.21c-1.94,6.28-3.41,12.52-3.59,18.98   c-0.11,3.94,0.55,7.89-0.04,11.88c-0.65,4.39-1.62,8.72-2.3,13.11c-0.95,6.2,0.9,11.85,2.14,17.68c1.77,8.29,2.09,16.56,0.8,25.03   c-0.89,5.87-2.3,11.65-2.83,17.59c-0.33,3.73-1.26,7.42-2.03,11.11c-0.66,3.15-1.01,6.4-1.22,9.52   c-0.51,7.54-2.63,14.76-3.46,22.19c-0.73,6.53-2.47,13-1.28,19.72c0.96,5.4,4.08,9.46,7.43,13.43c4.68,5.55,8.91,11.63,15.99,14.57   c1.78,0.74,2.62,2.19,2.06,4.01c-0.65,2.15-2.58,3.08-4.51,3.87C205.5,628.09,201.33,627.33,197.25,627.45z"/>
	<path class="st2" d="M162.39,507.93c-0.49-7.29,0.48-13.99,2.33-20.59c0.24-0.85,0.46-1.71,1.35-1.92c1.18-0.28,1.3,0.93,1.55,1.58   c1.63,4.15,4.38,7.51,7.28,10.82c4,4.57,4.51,10.44,4.96,16.06c0.79,9.91-1.14,19.63-3.17,29.3c-1.1,5.27-1.94,10.6-3,15.87   c-0.24,1.2-0.24,3.17-1.91,3.02c-1.71-0.16-1.23-2.07-1.3-3.32c-0.49-8.28-2.09-16.33-4.27-24.34   C163.83,525.65,161.4,516.79,162.39,507.93z"/>
	<path class="st2" d="M102.26,518.05c-0.18-6.43,0.5-12.75,3.86-18.3c2.85-4.71,6.97-8.54,9.34-13.68c0.89-1.94,1.95,0.12,2.17,1.01   c2.05,8.17,2.95,16.35,1.73,24.86c-1.52,10.62-4.88,20.8-6.73,31.31c-0.94,5.34-0.78,10.76-0.79,16.16c0,1.02,0.38,2.45-1.05,2.72   c-1.62,0.3-1.49-1.31-1.71-2.24C105.85,546.1,102.83,532.27,102.26,518.05z"/>
	<path class="st1" d="M162.15,446.04c-0.08-6.08,1.37-10.99,2.35-16.02c1.41-7.21,2.04-14.57,3.19-21.84c0.27-1.7-0.5-4.7,1.69-4.77   c1.89-0.06,2.01,2.94,2.68,4.75c2.65,7.08,5.27,14.15,8.95,20.82c3.76,6.81,4.01,13.91,0.23,21c-2.17,4.06-4.76,7.76-8,11   c-4.43,4.44-6.1,4.22-8.27-1.6C163.28,454.84,161.46,450.22,162.15,446.04z"/>
	<path class="st0" d="M298.98,329.51c1,0.01,1.98-0.21,1.94-1.42c-0.26-8.85,4.98-15.52,8.93-22.69c3.11-5.65,5.27-11.59,6.8-17.9   c0.93-3.85,0.95-7.59,0.71-11.31c-0.45-7.03,0.96-13.17,5.02-19.14c2.97-4.38,3.56-9.99,4.66-15.24c0.6-2.85,0.56-5.89,2.08-8.52   c0.39-0.67,0.85-1.29,1.73-1.18c0.81,0.1,0.92,0.78,1.12,1.45c1.82,6.08,3.57,12.18,5.56,18.21c1.28,3.89,2.96,7.65,4.4,11.49   c2.21,5.92,1.8,12.08,1.2,18.16c-0.39,4-1.47,7.94-2.18,11.91c-1.06,5.91-2.04,11.83-3.11,17.74c-0.76,4.19-1.28,8.45-2.48,12.51   c-1.5,5.08-2.74,10.24-4.34,15.3c-1.44,4.57-2.09,9.46-2.51,14.27c-1.58,18.15-2.03,36.35-1.45,54.55   c0.18,5.53,1.72,10.99,3.06,16.41c1.22,4.91,3.18,9.6,2.93,14.92c-0.31,6.64-0.16,13.34,0.96,19.93c0.4,2.34,1.04,4.68,1.64,6.96   c1.52,5.78-0.25,10.96-1.42,16.46c-1.83,8.61-3.41,17.29-1.62,26.29c1.1,5.54,1.66,11.22,2.77,16.79c0.15,0.74,0.56,2.25-0.67,2.28   c-1.28,0.02-0.61-1.43-0.76-2.24c-0.42-2.25-0.62-4.55-1.21-6.75c-1.96-7.34-2.43-14.8-2.33-22.35c0.08-5.58,1.66-10.85,2.91-16.21   c1.39-5.93,0.99-11.84-0.03-17.85c-0.96-5.66-2.6-11.28-1.56-17.22c0.92-5.29-0.17-10.56-1.67-15.66c-1.3-4.41-2.26-8.89-3.3-13.35   c-1.43-6.16-1.41-12.36-1.63-18.5c-0.32-9.01,0.44-18.05,0.7-27.08c0.14-4.81,0.7-9.59,0.95-14.37c0.43-8.08,2.37-15.74,4.38-23.49   c1.27-4.92,2.73-9.8,3.94-14.74c2.06-8.4,2.52-17.03,4.47-25.45c1.26-5.42,2.24-11.08,2.44-16.81c0.24-6.61-1.84-12.5-4.07-18.51   c-2.41-6.49-4.38-13.14-6.5-19.73c-0.17-0.53,0.01-1.29-0.78-1.34c-0.81-0.04-1.11,0.57-1.22,1.31   c-1.44,9.98-4.34,19.42-9.97,27.94c-0.87,1.31-1.12,3.4-0.89,5.02c2,14.11-1.69,26.81-9.15,38.65c-4.32,6.86-7.77,13.93-7.08,22.45   c0.21,2.53,0.86,4.66,2.19,6.69c3.12,4.76,5.4,9.76,4.92,15.67c-0.23,2.89-0.07,5.82-0.36,8.7c-0.14,1.41-0.58,2.96-2.69,2.98   c-2.06,0.02-3.53-0.31-4.61-2.47c-1.18-2.39-0.22-5.16-1.83-7.39c-0.68-0.95-1.14-2.24-2.51-2.01c-1.34,0.23-0.82,1.59-1.05,2.49   c-2.15,8.28,0.89,15.88,3.04,23.6c0.57,2.03,1.72,3.9,1.53,6.15c-0.26,3.04-3.09,4.8-5.84,3.52c-2.07-0.97-4.12-1.99-6.17-3.01   c-0.76-0.38-1.74-0.96-1.3-1.82c0.57-1.13,1.26,0.13,1.79,0.37c1.88,0.85,3.76,1.75,5.48,2.88c1.29,0.85,2.37,0.73,3.41-0.13   c1.04-0.86,1.49-2.13,0.97-3.38c-2.7-6.5-4.07-13.35-5.18-20.25c-0.73-4.59,0.24-8.97,2.27-13.16c0.75-1.56,1.24-0.34,1.8,0.06   c3.76,2.66,4.02,7,5.08,10.91c0.37,1.39,0.58,2.26,2.28,2.13c1.77-0.14,2.27-1.26,2.36-2.66c0.56-8.49,0.07-16.75-5.57-23.81   c-0.76-0.95-1.52-1.95-1.43-3.36c0.08-1.43-1.08-1.16-1.96-1.22C298.97,331.83,298.97,330.67,298.98,329.51z"/>
	<path class="st1" d="M97.78,439.42c-0.03-4.18,1.65-7.91,3.57-11.43c3.94-7.22,6.76-14.87,9.32-22.64c0.31-0.94,0.78-1.84,1.8-1.72   c0.95,0.11,1.04,1.16,1.14,1.99c1.33,11.31,3.35,22.51,5.34,33.71c1.3,7.29,0.01,14.33-2.67,21.1c-1.57,3.97-3.47,4.12-6.63,1.36   c-5.98-5.25-9.57-11.91-11.83-19.38C97.54,441.48,97.78,440.41,97.78,439.42z"/>
	<path class="st0" d="M78.45,156c2.33,0,4.67,0.14,6.98-0.03c3.29-0.26,3.38,1.67,2.33,3.68c-2.25,4.32-4.87,8.42-7.77,12.37   c-5.55,7.55-12.69,13.48-19.37,19.9c-2.18,2.09-4.37,4.3-5.56,7.23c-0.24,0.6-0.69,1.28-1.46,1.12c-0.96-0.19-1-1.09-0.85-1.81   c0.93-4.28-0.16-8.68,0.53-12.91c1.33-8.13,1.92-16.63,7.76-23.23c3.26-3.68,6.9-6.88,12.41-6.35C75.11,156.13,76.79,156,78.45,156   z"/>
	<path class="st1" d="M140.59,333.95c-0.24,3.04,0.52,7.13-0.44,11.17c-0.2,0.82,0.37,2.01-0.89,2.32c-1.25,0.3-2.38,0.04-3.42-0.95   c-3.88-3.68-6.68-8.19-9.91-12.38c-5.73-7.44-9.63-15.49-10.62-24.9c-0.29-2.73-0.18-4.41,3.4-4.22c6.01,0.31,12.05-0.46,18.06,0.5   c1.47,0.24,2.12,0.86,2.33,2.37C140.25,316.18,140.77,324.53,140.59,333.95z"/>
	<path class="st0" d="M203.33,154.99c4.1,0.08,8.31-0.58,12.1,1.62c4.88,2.83,8.2,6.91,10.14,12.28c3.26,9.03,3.45,18.39,3.46,27.8   c0,0.62,0.23,1.48-0.67,1.64c-0.36,0.06-0.98-0.31-1.19-0.66c-4.52-7.38-11.79-12.12-17.57-18.29   c-5.86-6.26-10.81-13.15-15.22-20.45c-1.53-2.53-0.68-3.92,2.2-3.94C198.83,154.99,201.08,154.99,203.33,154.99z"/>
	<path class="st1" d="M126.2,406.41c0.56,5.22-1.84,9.86-3.01,14.72c-0.54,2.23-0.3,4.63-1.5,6.73c-0.37,0.65,0.02,1.93-1.14,1.86   c-0.92-0.06-1.63-0.94-1.76-1.88c-1.22-9.01-2.49-18.02-3.54-27.05c-1.09-9.34-2.06-18.69-3.28-28.02   c-1.02-7.86-1.79-15.79-2.73-23.68c-0.71-5.97-1.43-11.94-2.04-17.92c-0.16-1.58-0.57-3.79,1.87-3.85   c2.08-0.06,3.65,1.53,3.94,3.55c0.68,4.83,0.84,9.74,1.61,14.56c1.27,7.96,2.28,15.95,4.12,23.84c1.04,4.46,1.81,9.02,2.84,13.51   c1.38,5.99,2.93,11.94,4.24,17.95C126.21,402.55,126.09,404.5,126.2,406.41z"/>
	<path class="st0" d="M393.88,277.25c0-7.5,0.03-14.99-0.03-22.49c-0.01-1.56,0.31-2.88,1.77-3.53c1.57-0.7,2.83-0.02,3.96,1.21   c4.41,4.79,9.68,8.76,12.55,14.96c2.02,4.37,3.03,8.95,4.19,13.52c0.31,1.22-0.64,1.96-1.38,2.76c-3.91,4.19-8.56,7.51-12.99,11.1   c-2.21,1.79-3.94,4.2-5.82,6.39c-0.46,0.53-0.5,1.57-1.53,1.23c-1.09-0.36-0.71-1.39-0.71-2.15   C393.87,292.57,393.88,284.91,393.88,277.25z"/>
	<path class="st1" d="M154.97,406.38c0.97-4.75,1.85-9.42,2.89-14.06c1.36-6.09,3.01-12.12,4.25-18.23   c1.7-8.42,3.27-16.88,4.64-25.36c0.75-4.65,0.97-9.38,1.43-14.08c0.09-0.9,0.07-1.84,0.32-2.7c0.67-2.31,1.63-4.84,4.55-4.3   c3.01,0.55,1.52,3.34,1.39,4.99c-0.6,7.67-1.46,15.34-2.59,22.92c-2.3,15.3-4.14,30.66-5.62,46.04   c-0.88,9.17-2.42,18.21-3.67,27.31c-0.08,0.59-0.15,1.23-0.88,1.32c-0.62,0.08-1.26-0.23-1.4-0.82   C158.46,421.74,156.72,414.05,154.97,406.38z"/>
	<path class="st0" d="M384.39,277.15c0,7.83,0,15.66-0.01,23.49c0,0.54,0.27,1.29-0.42,1.56c-0.68,0.26-1.03-0.39-1.33-0.86   c-3.08-4.72-7.4-8.19-11.6-11.82c-2.83-2.44-6.62-4.46-6.95-8.66c-0.32-4.11,0.77-8.24,2.37-11.99c2.62-6.11,6.88-11.12,11.86-15.5   c0.56-0.49,1.17-0.94,1.81-1.32c1.07-0.64,2.25-1.4,3.48-0.81c1.33,0.64,0.78,2.07,0.79,3.17   C384.41,261.99,384.39,269.57,384.39,277.15z"/>
	<path class="st1" d="M166.15,315.98c-0.03,0.49-0.06,0.99-0.08,1.48c-1.96,1.55-1.99,3.97-2.77,6.06   c-2.39,5.41-6.59,9.6-9.67,14.55c-2.68,1.81-3.57,5.1-5.92,7.19c-1.04,0.93-2.05,2.32-3.6,1.62c-1.45-0.66-1.08-2.29-1.05-3.58   c0.26-12.13-1.04-24.34,1.9-36.33c0,0,0.12-0.13,0.12-0.13c1.45,0.26,2.15-0.59,2.6-1.78c5.95,0,11.9,0,17.85,0   C166.19,308.67,165,312.39,166.15,315.98z"/>
	<path class="st1" d="M110.65,289.71c-1.23-5.92,2.51-9.63,7.92-12.33c2.27-1.13,4.54-2.28,6.83-3.37c4.09-1.95,7.59-1.18,9.68,2.85   c3.49,6.72,4.14,13.85,1.46,21.07c-0.93,2.5-2.73,3.67-5.59,3.6c-3.8-0.09-7.62,0.36-11.43,0.41c-6.29,0.08-8.85-2.55-8.87-8.92   C110.64,292.18,110.65,291.35,110.65,289.71z"/>
	<path class="st1" d="M171.62,290.52c0,0.17-0.01,0.33,0,0.5c0.99,11.26-4.55,11.6-12.97,10.65c-3.14-0.35-6.29,0.21-9.41-0.6   c-1.67-0.43-2.58-1.42-3.09-2.89c-2.47-7.24-1.74-14.32,1.32-21.19c1.64-3.67,5.08-4.8,9.23-3.33c4.64,1.64,8.82,4.11,12.72,7.07   c1.46,1.11,2.14,2.72,2.18,4.55C171.65,287.03,171.62,288.78,171.62,290.52z"/>
	<path class="st0" d="M477.27,190.36c0.26,2.5-0.35,5.17,0.33,7.81c0.09,0.33-0.01,0.87-0.23,1.09c-0.34,0.33-0.78,0.1-1.04-0.29   c-6.93-10.53-17.2-18.24-24.26-28.63c-2.64-3.88-1.12-10.54,2.52-13.23c2.19-1.62,4.8-1.69,6.89-0.82   c7.19,2.98,11.65,8.23,13.49,16.11C476.33,178.31,477.48,184.14,477.27,190.36z"/>
	<path class="st0" d="M327.94,165.63c0.77,3.08-0.92,5.95-3.13,8.11c-7.72,7.55-14.46,15.95-21.44,24.15   c-0.48,0.56-0.86,1.37-1.78,0.97c-0.93-0.4-0.74-1.32-0.49-1.95c2.03-5.14,0.99-10.52,1.41-15.78c0.5-6.26,1.79-12.43,5.52-17.64   c3.12-4.36,7.32-7.34,12.97-7.47c4.18-0.09,6.73,2.44,6.93,6.68C327.98,163.53,327.94,164.36,327.94,165.63z"/>
	<path class="st2" d="M411.43,504.27c0.77-9.53,0.75-18.75,2.61-27.79c0.55-2.66,1.62-5.22,3.54-7.22c1.35-1.41,3.21-1.56,4.34,0.03   c1.84,2.58,3.09,5.45,2.38,8.85c-2.82,13.46-4.42,26.93-1.8,40.68c0.94,4.93-1.78,9.32-4.24,13.46c-0.7,1.17-1.69,0.41-2.25-0.64   c-1.84-3.4-2.6-7.19-3.18-10.89C411.98,515.19,411.84,509.53,411.43,504.27z"/>
	<path class="st2" d="M357.67,503.48c0.02-8.09-1.47-16-2.8-23.92c-0.46-2.73,0.01-5.31,0.43-7.89c0.23-1.41,1.24-2.73,2.97-3.01   c1.67-0.27,2.85,0.45,3.84,1.74c2.43,3.18,3.05,7,3.5,10.75c1.38,11.57,2.24,23.2,0.84,34.81c-0.6,4.97-1.05,10.05-3.06,14.75   c-0.4,0.95-0.78,2.36-1.83,2.36c-0.65,0-1.4-1.27-1.92-2.08c-3.74-5.88-4.14-12.14-2.51-18.82   C357.79,509.39,357.51,506.38,357.67,503.48z"/>
	<path class="st1" d="M139.24,257.86c0.35,3.7-1.53,6.79-2.66,10.04c-0.44,1.26-1.49,2.17-3.07,2.11   c-6.94-0.3-12.82,2.72-18.56,6.07c-2.74,1.6-4.69,0.68-4.78-2.55c-0.33-12.16,2.23-15.62,12.53-21.23   c2.53-1.38,5.16-2.59,7.79-3.77c5.05-2.26,6.98-1.26,8.07,4.18C138.91,254.4,139.02,256.14,139.24,257.86z"/>
	<path class="st1" d="M171.62,268.09c0,2.39-0.08,3.81,0.02,5.22c0.2,3.08-1.35,3.91-3.81,2.62c-5.97-3.12-11.9-5.95-18.9-6.1   c-2.47-0.05-3.71-3.01-4.1-5.15c-0.81-4.46-1.24-9.03-0.17-13.59c0.76-3.26,3.02-4.66,5.98-3.46c6.22,2.52,11.96,5.89,17.32,9.93   C171.96,260.6,171.74,264.81,171.62,268.09z"/>
	<path class="st0" d="M191.57,465.16c0.45,4.14-0.51,8.41-1.32,12.39c-0.98,4.82-5.34,8.02-10.01,9.88   c-4.62,1.84-7.15-0.18-9.65-6.55c-1.4-3.56-0.82-7.16-0.99-10.76c-0.01-0.24-0.01-0.58,0.14-0.72c4.43-4.21,7.37-9.95,12.55-13.28   c4.56-2.93,9.06,0.07,9.27,5.67C191.61,462.88,191.57,463.96,191.57,465.16z"/>
	<path class="st0" d="M90.67,470.97c0-3.67,0.04-6.47-0.01-9.26c-0.06-3.34,1.85-5.68,4.47-6.96c2.41-1.17,4.45,0.87,6.02,2.56   c3.89,4.16,8.23,8.05,10.73,13.27c2.26,4.71-1.23,14.92-5.67,17.55c-2.11,1.25-3.91-0.26-5.56-1.06   C93.61,483.67,90,478.1,90.67,470.97z"/>
	<path class="st1" d="M149.11,352.48c-0.45-3.2,1.47-5.3,3.23-7.54c3.68-4.69,7.23-9.49,10.88-14.2c0.52-0.68,1.11-1.77,2.12-1.43   c1.06,0.36,0.68,1.56,0.7,2.43c0.11,4.76-1.13,9.35-1.87,13.99c-1.22,7.65-2.6,15.28-4.15,22.87c-1.28,6.28-2.88,12.49-4.35,18.73   c-0.17,0.74-0.38,1.56-1.36,1.5c-0.95-0.05-1.07-0.83-1.21-1.61C151.03,375.72,150.64,364.03,149.11,352.48z"/>
	<path class="st0" d="M334.51,627.51c-4.88-0.05-9.08,0.24-13.2-1.01c-2.16-0.66-3.61-2.13-4.64-3.9c-0.67-1.16-0.45-2.76,1.07-3.41   c8.33-3.56,13.2-10.84,18.79-17.36c6.7-7.81,6.5-16.83,4.73-26.17c-0.54-2.82-1.28-5.69-1.24-8.52c0.05-4.22-1.62-8.08-1.93-12.21   c-0.31-4.09-1.51-8.15-1.53-12.22c-0.01-3.58-1.61-6.77-1.59-10.26c0.01-0.78-0.58-2.2,0.78-2.19c1.09,0,0.55,1.33,0.67,2.08   c1.11,6.96,2.54,13.89,3.22,20.89c0.64,6.67,1.82,13.23,2.76,19.84c0.58,4.07,1.05,8.17,1.51,12.26   c0.93,8.28-3.98,14.17-8.35,20.28c-4.36,6.1-9.84,10.92-16.38,14.55c-0.65,0.36-1.42,0.94-1.12,1.76c0.62,1.68,2.11,2.66,3.72,3   c5.85,1.26,11.84,1.26,17.78,1.52c2.64,0.11,4.69-1.87,6.99-2.91c3.7-1.67,7.44-2.97,11.57-3.06c6.22-0.13,8.84-3.29,7.67-9.38   c-3.19-16.5-4.74-33.13-3.84-49.92c0.53-9.95,1.3-19.84,4.49-29.5c4.25-12.89,4.74-26.37,3.81-39.79   c-0.39-5.66-2.11-11.24-3.48-16.8c-0.77-3.12,0.76-5.66,1.59-8.32c1.72-5.45,3.02-10.93,3.02-16.67c0-6.8,0.56-13.53,2.52-20.08   c0.11-0.37,0.34-1,0.51-1c0.78,0.01,0.5,0.74,0.47,1.11c-0.4,4.49-0.7,9-1.37,13.46c-0.26,1.72-0.73,3.4-0.62,5.16   c0.42,6.89-0.97,13.5-3.5,19.81c-1.73,4.31-0.63,8.31,0.27,12.4c1.5,6.87,2.88,13.68,1.87,20.82c-0.41,2.9,0.51,5.97,0.29,8.92   c-0.59,7.96-2.34,15.71-4.56,23.38c-1.32,4.56-2.12,9.29-2.82,14c-1.82,12.15-1.03,24.4-0.95,36.61c0.04,6.83,1.88,13.5,3.12,20.23   c0.75,4.1,0.46,8.48,0.02,12.67c-0.21,1.98-2.19,3.99-4.39,3.81c-6.88-0.57-12.62,2.42-18.4,5.32   C340.55,628.36,337.13,626.87,334.51,627.51z"/>
	<path class="st1" d="M115.24,332.32c-0.06-1.04,0.39-1.8,1.34-2.17c0.91-0.36,1.62,0.11,2.16,0.82   c4.14,5.38,8.41,10.68,12.37,16.19c2.8,3.9,1.04,8.42,0.7,12.56c-0.75,9.14-2.12,18.23-3.24,27.34c-0.11,0.86,0.09,2.16-1.13,2.09   c-0.97-0.06-1.5-1.09-1.73-2.18c-1.72-8.14-3.64-16.24-5.2-24.41C118.59,352.52,116.98,342.41,115.24,332.32z"/>
	<path class="st1" d="M82.27,362.75c0.36-9.06,2.08-18.95,5.53-28.56c1.55-4.31,2.48-8.85,3.86-13.23c0.99-3.14,3.54-3.95,6.41-2.27   c5.87,3.45,6.29,5.91,4.19,12.81c-3.22,10.56-9.22,19.68-14.16,29.35c-1.12,2.19-2.01,4.51-2.97,6.78c-0.28,0.65-0.2,1.7-1.21,1.58   c-0.95-0.11-1.67-0.73-1.65-1.87C82.28,366.19,82.27,365.02,82.27,362.75z"/>
	<path class="st2" d="M104.41,576.24c-0.11,0.38-0.22,0.75-0.33,1.12c-0.68-0.28-1.28-0.56-1.73-1.26c-1.63-2.54-2.42-5.42-3.43-8.2   c-2.97-8.17-4.89-16.65-5.62-25.24c-0.7-8.3-2.17-16.43-4.04-24.46c-1.54-6.59-2.62-13.1-2.19-19.85   c0.26-4.07,1.68-7.88,2.58-11.81c0.11-0.46,0.7-0.95,1.18-1.15c0.7-0.28,0.92,0.42,1.26,0.9c0.69,1,0.95,2.06,0.93,3.28   c-0.24,12.05,1.91,23.93,2.62,35.92c0.54,8.97,1.92,17.92,3.42,26.8c1.26,7.48,3.23,14.84,4.9,22.26   C104.09,575.1,104.26,575.66,104.41,576.24z"/>
	<path class="st1" d="M197.67,354.32c-0.12,3-0.01,6-0.68,8.94c-0.12,0.52-0.45,1.22-0.86,1.38c-0.75,0.28-0.81-0.55-1.06-1.05   c-4.83-9.62-11.11-18.53-14.43-28.9c-0.95-2.96-2.25-5.83-2.07-9.12c0.23-3.96,3.47-7.27,7.44-7.59c2.54-0.21,4,1.17,4.38,3.15   c1.69,8.74,5.71,16.86,6.81,25.74C197.5,349.34,197.52,351.84,197.67,354.32z"/>
	<path class="st1" d="M133.09,224.48c3.61-0.44,4.47,2.41,5.2,5.8c1.28,5.94-1.75,13.37-6.69,14.84c-2.82,0.84-5.31,2.22-7.86,3.52   c-3.15,1.62-6.18,3.47-9.23,5.28c-0.76,0.45-1.4,1.47-2.35,0.62c-0.83-0.74-1.05-1.73-0.84-2.94c0.46-2.72,1.78-4.99,3.5-7   c2.45-2.85,3.31-6.18,2.82-9.74c-0.55-4.05,0.88-6.42,4.8-7.58C125.75,226.31,128.8,224.51,133.09,224.48z"/>
	<path class="st1" d="M144.66,233.62c0-0.72,0-0.8,0-0.89c0-7.83,2.3-9.79,9.71-7.42c4.2,1.34,9.43,1.72,10.83,7.4   c0.1,0.4,0.4,0.86,0.3,1.19c-1.88,5.7,2.26,9.39,4.4,13.8c0.88,1.8,3.33,3.86,1.11,5.95c-2.42,2.28-4.22-0.55-6.01-1.64   c-4.04-2.47-8.19-4.77-12.57-6.42C146.35,243.3,144.33,238.99,144.66,233.62z"/>
	<path class="st0" d="M223.55,354.03c-2.02-6.15,2.57-11.65,5.04-17.79c1.93-4.79,0.87-9.71-0.08-14.64   c-1.75-9.02-8.59-15.5-11.51-23.91c-1.45-4.19-2.39-8.44-3.2-12.82c-1.01-5.43,0.28-10.51,0.28-15.74c0-3.57-1-6.64-3.71-9.08   c-5.74-5.17-8.68-11.7-9.31-19.35c-0.06-0.68-0.11-1.43-0.99-1.47c-0.74-0.04-0.8,0.63-1.01,1.2c-2.17,5.99-4.54,11.9-6.53,17.95   c-2.48,7.55-3.73,15.21-3.17,23.31c0.58,8.28,2.67,16.26,3.93,24.39c1.53,9.85,3.85,19.62,6.48,29.3c1.86,6.84,3.04,13.91,4.09,21   c1.2,8.15,0.89,16.21,1.17,24.31c0.02,0.67,0.43,1.83-0.51,1.92c-1.19,0.11-0.93-1.12-0.94-1.88c-0.04-2.92-0.13-5.84,0-8.75   c0.32-7.33-1.38-14.42-2.29-21.61c-0.97-7.65-2.87-15.07-4.97-22.35c-1.95-6.74-3-13.6-4.11-20.41   c-1.35-8.35-3.51-16.53-4.31-25.03c-0.96-10.26,1.22-19.65,4.82-29.01c2.17-5.63,3.95-11.41,5.85-17.14   c0.32-0.96,0.71-1.81,1.74-1.83c1.05-0.02,1.48,0.86,1.81,1.78c1.04,2.82,0.44,5.81,1.25,8.76c1.3,4.78,3.04,9.45,6.61,12.5   c5.81,4.96,6.18,11.08,5.46,17.65c-1.03,9.41,0.85,18.17,5.15,26.47c3.29,6.35,7.81,12.09,9.58,19.19   c1.7,6.84,1.99,13.8-1.97,19.83c-3.82,5.83-3.85,11.97-3.5,18.38c0.08,1.4,0.27,2.8,0.4,4.2c0.05,0.56,0.78,1.42-0.44,1.48   c-0.79,0.04-1.09-0.7-1.09-1.42C223.54,360.69,223.55,357.94,223.55,354.03z"/>
	<path class="st0" d="M153.76,145.49c0.97-5.61,1.87-11.23,2.95-16.82c0.25-1.31,1.63-2.51,2.72-1.17   c6.17,7.61,15.08,10.92,23.34,15.27c1.11,0.58,2.63,0.94,2.54,2.34c-0.09,1.45-1.66,1.25-2.77,1.52   c-5.56,1.36-11.18,2.45-16.78,3.59c-2.49,0.51-5.16,0.37-7.63,1.57c-2.15,1.04-3.63-0.48-3.96-2.75c-0.17-1.14-0.03-2.33-0.03-3.49   C154.01,145.52,153.89,145.5,153.76,145.49z"/>
	<path class="st0" d="M128.08,141.2c0.16,2.44,0.38,5.33,0.53,8.22c0.1,1.85-0.75,2.95-2.69,2.56c-6.81-1.37-13.59-2.89-20.41-4.22   c-2.01-0.39-4.07-0.53-6.03-1.22c-0.65-0.23-1.66,0.19-1.75-0.91c-0.09-1.05,0.31-2.09,1.32-2.47c7.27-2.71,13.67-7.03,20.32-10.89   c1.45-0.84,2.77-2.08,3.38-3.85c0.3-0.85,0.97-1.68,1.93-1.77c1.31-0.12,0.92,1.18,1.15,1.84   C127.28,132.44,128.38,136.47,128.08,141.2z"/>
	<path class="st0" d="M347.92,189.74c0.01,5.92-0.82,6.67-5.71,6.27c-1.88-0.15-3.72-0.14-5.64-0.57c-5.79-1.28-5.86-5.85-7.32-10.3   c-2.47-7.55,2.95-10.25,7.15-13.73c4.68-3.88,7.42-2.41,9.22,3.6C347.2,180.24,346.74,185.64,347.92,189.74z"/>
	<path class="st0" d="M450.37,181.8c-2.11,2.94,0.71,7.81-3.04,10.94c-4.11,3.42-9.03,3.62-14,3.3c-2.27-0.15-2-2.14-1.93-3.63   c0.25-5.06,0.07-10.12,1.32-15.15c0.7-2.81,1.59-5.35,3.56-7.38c1.92-1.97,4.03-0.77,5.56,0.55c2.76,2.38,5.22,5.11,7.82,7.67   C450.56,178.99,450.25,180.1,450.37,181.8z"/>
	<path class="st1" d="M168.14,599.77c-0.08-3.32,0.79-6.9,3.59-8.23c3.72-1.77,8.19-2.31,12.2-0.19c2.76,1.46,2.99,6.03,0.38,7.89   c-3.47,2.48-7.11,4.74-10.8,6.89c-2.2,1.29-4.93-0.88-5.36-4.13C168.06,601.28,168.14,600.52,168.14,599.77z"/>
	<path class="st1" d="M114.06,600.07c0.27,1.69-0.14,3.15-0.9,4.6c-1.26,2.43-3.13,2.42-4.9,1.02c-2.23-1.76-4.68-3.1-7.13-4.45   c-2.57-1.41-5.16-2.86-4.75-6.27c0.42-3.58,3.37-4.37,6.34-4.88c3.39-0.59,9.07,1.17,9.92,3.39   C113.46,595.59,114.62,597.71,114.06,600.07z"/>
	<path class="st1" d="M250.47,334.77c0,4.43-2.66,6.45-6.67,5.35c-2.77-0.75-5.6-1.23-8.11-2.81c-2.77-1.74-3.73-8.4-1.4-10.63   c1.04-1,2.3-0.29,3.28,0c2.93,0.88,5.69,1.33,8.68-0.01c1.49-0.67,2.99,0,3.23,2C249.73,330.81,250.81,332.81,250.47,334.77z"/>
	<path class="st1" d="M298.98,329.51c0,1.16-0.01,2.32-0.01,3.48c-1,4.18-4.94,4.11-7.91,5.37c-1.1,0.47-2.42,0.44-3.65,0.58   c-3.89,0.44-5.38-0.87-5.38-4.74c0-2.65-0.21-5.31,1.23-7.75c0.58-0.97,1.32-1.83,2.33-1.2c2.79,1.71,5.53,1.02,8.36,0.29   C298.15,324.47,298.76,324.98,298.98,329.51z"/>
	<path class="st1" d="M497.81,333.41c0.15,4.4-0.68,6.1-6.71,5.25c-1.22-0.17-2.52-0.2-3.64-0.64c-5.78-2.24-7.54-2.14-6.68-10.22   c0.26-2.43,1.47-2.98,3.52-2.49c3.29,0.79,6.4,1.78,9.88,0.04c1.68-0.85,2.6,1.4,2.97,2.9   C497.57,329.91,497.61,331.68,497.81,333.41z"/>
	<path class="st1" d="M398.46,366.55c0-0.83,0.05-1.67-0.01-2.5c-0.17-2.7,1.33-2.94,3.33-2.19c1.7,0.64,3.28,1.59,4.99,2.2   c2.76,1,3.3,3.22,2.36,5.4c-2.7,6.27-4.06,12.88-5.58,19.46c-0.14,0.62,0.17,1.86-0.87,1.77c-0.88-0.07-1.56-0.99-1.69-1.95   C399.93,381.37,398.72,374.01,398.46,366.55z"/>
	<path class="st1" d="M34.26,334.28c0-1.55-0.06-2.63,0.01-3.71c0.24-3.52,1.62-4.39,4.93-3.34c1.76,0.56,3.68,0.64,5.37-0.01   c2.02-0.77,4.09-1.47,5.78,0.05c1.48,1.33,1.18,7.84-0.33,8.98c-3.86,2.9-8.3,4.27-13.14,3.66   C32.81,339.4,34.65,336.05,34.26,334.28z"/>
	<path class="st1" d="M380.13,367.58c-0.91,6.49-1.86,13.44-2.91,20.38c-0.14,0.9-0.45,2.34-1.53,2.29   c-1.26-0.06-0.5-1.48-0.76-2.27c-1.95-5.99-3.06-12.24-5.64-18.05c-0.9-2.03-1.1-4.02,1.53-5.12c0.9-0.38,1.69-1.04,2.59-1.44   c1.85-0.82,3.78-2.71,5.71-1.63C380.98,362.81,379.39,365.28,380.13,367.58z"/>
	<path class="st1" d="M362.33,598.78c0.27,2.46-0.76,4.58-2.63,5.84c-1.95,1.31-3.53-0.44-5-1.64c-1.56-1.28-3.61-1.43-5.38-2.32   c-2.74-1.37-5.49-2.45-4.79-6.16c0.7-3.74,3.94-4.12,6.92-4.42c1.44-0.15,2.95,0.28,4.41,0.54   C360.35,591.41,362.34,593.94,362.33,598.78z"/>
	<path class="st1" d="M433.85,595.69c0.52,2.57-1.5,3.75-3.47,4.57c-2.84,1.19-5.79,2.04-8.32,3.98c-2.07,1.59-4.28,0.54-5.41-2.28   c-2.21-5.52,1.07-10.91,6.89-11.47c2.13-0.21,4.22-0.63,6.35,0.04C432.35,591.31,434.03,592.63,433.85,595.69z"/>
	<path class="st3" d="M355.19,422.56c0.39,3.34,0.69,6.7,1.03,10.05c-1.01-0.19-1.27-0.87-1.24-1.82c0.03-0.9,0.09-1.84-0.09-2.72   c-0.36-1.72,0.15-3.61-0.99-5.18c-1.33,1.46-0.27,3.22-0.58,4.81c-0.2,0.96-0.13,2.05-1.48,2.22c1.38-5.02,0.03-10.03-0.22-15.03   c-0.38-7.71-0.23-15.39,0.66-23.05c0.2-1.79-0.44-3.65,0.49-5.37c1.1,0.3,0.01,2.52,1.23,1.96c0.7-0.33,0.9-2.4,0.8-3.64   c-0.13-1.58-1.24-0.14-1.89-0.3c-0.02-2.05,0.27-4.06,0.98-5.99c0.1,0.12,0.29,0.24,0.3,0.38c0.12,1.22,0.22,2.45,0.32,3.68   c0.9-0.67,0.24-2.37,1.73-2.66c-0.43,4.34-0.76,8.7-1.3,13.02C353.69,402.82,354.03,412.69,355.19,422.56z"/>
	<path class="st0" d="M387.62,356.01c0.92-0.01,1.71,0.33,1.9,1.07c0.34,1.34-0.91,0.78-1.47,0.96c-1.17,0.36-1.08,1.28-1.17,2.2   c-0.47,4.84-0.97,9.67-1.49,14.5c-0.64,5.91-1.02,11.87-2.08,17.7c-1.07,5.89-1.73,11.84-3.15,17.7c-1,4.11-1.56,8.37-2.74,12.47   c-0.14,0.47-0.1,1.13-0.4,1.39c-0.6,0.5-0.29,2.07-1.41,1.65c-1.19-0.45-0.15-1.38,0.02-2.11c1.68-6.95,3.07-13.96,4.39-20.99   c1.31-6.95,1.58-14.03,3.12-20.96c0.77-3.47,1.03-7.22,1.09-10.78c0.07-4.35,1.35-8.51,1.23-12.84   C385.4,356.62,386.2,355.79,387.62,356.01z"/>
	<path class="st0" d="M144.95,306.96c-2.93,11.99-1.64,24.2-1.9,36.33c-0.03,1.29-0.39,2.93,1.05,3.58c1.55,0.7,2.56-0.69,3.6-1.62   c2.35-2.09,3.23-5.38,5.92-7.19c-1.37,3.65-3.72,6.6-6.55,9.21c-1.14,1.05-2.49,0.93-3.74,0.46c-1.2-0.45-1.23-1.62-1.22-2.75   c0.02-9.66-0.27-19.34,0.18-28.98C142.44,313.04,141.86,309.3,144.95,306.96z"/>
	<path class="st0" d="M166.15,315.98c-1.15-3.59,0.04-7.31-0.62-10.93c0.38,0.12,0.89,0.13,1.11,0.39   C167.6,306.59,167.18,314.63,166.15,315.98z"/>
	<path class="st0" d="M163.29,323.52c0.78-2.09,0.81-4.51,2.77-6.06C166.01,319.88,165.68,322.17,163.29,323.52z"/>
	<path class="st0" d="M147.68,305.05c-0.46,1.2-1.15,2.04-2.6,1.78C145.47,305.54,146.29,304.88,147.68,305.05z"/>
	<path class="st1" d="M336.38,439.5c0.56,0.34,0.55,0.67-0.02,1C335.94,440.16,335.93,439.83,336.38,439.5z"/>
	<path class="st2" d="M355.23,427.44c0.53-2.96-0.61-5.63-0.89-8.4c-0.74-7.3-0.76-14.66-0.14-21.87   c0.47-5.48,0.85-11.07,2.17-16.53c0.89-3.64,1.81-7.3,2.53-11c0.26-1.32,0.88-1.94,2.53-1.21c3.16,1.4,4.43,4.23,5.73,6.99   c1.63,3.47,2.57,7.22,3.84,10.82c1.85,5.24,1.8,10.76,3.15,16.07c0.73,2.86,0.93,6.06,1.08,9.13c0.2,3.93-1.5,7.53-2.34,11.28   c-0.62,2.75-1.41,5.48-2.2,8.14c-1.75,5.9-0.85,11.84-1.25,17.75c-0.11,1.58-1.11,3.11-0.94,4.72c0.29,2.83-0.74,5.41-1.17,8.1   c-0.18,1.15-0.56,2.25-1.53,2.43c-1.11,0.2-1.63-1.11-1.97-1.98c-1.09-2.75-2.14-5.52-2.95-8.36c-1.13-3.96-2.35-7.89-3.28-11.92   c-0.83-3.57-0.66-7.3-2.04-10.77C355.14,429.79,355.32,428.51,355.23,427.44z"/>
	<path class="st2" d="M335.7,442.75c0.32-3.82,0.08-7.43-0.21-11.08c-0.23-2.88,0.79-5.87,1.26-8.81c0.4-2.54,1.57-4.83,1.74-7.42   c0.16-2.53,0.99-5.03,1.55-7.47c0.62-2.7,0.25-5.41,1.02-8.04c1.9-6.49,0.51-13.18,0.94-19.77c0.26-3.98,1.66-7.52,4.32-10.53   c1.34-1.51,3.27-2.03,5.09-2.42c2.33-0.5,3.85,1.07,3.91,3.43c0.05,1.95-0.57,3.74-0.95,5.6c-0.64,3.14-1.44,6.39-1.53,9.49   c-0.15,5.23-1.4,10.36-1.11,15.61c0.13,2.34-0.3,4.71-0.31,7.03c-0.01,4.31-0.04,8.7,0.85,12.95c1.33,6.39-0.3,11.99-3.61,17.44   c-2.13,3.51-3.44,7.42-4.54,11.44c-0.93,3.41-1.18,6.94-2.21,10.29c-0.35,1.14-1.14,2.2-1.9,3.16c-0.53,0.66-1,0.66-1.61-0.33   c-1.84-3.03-1.67-6.49-2.03-9.73C335.95,449.97,336.02,446.25,335.7,442.75z"/>
	<path class="st2" d="M192.63,500.53c-0.08,7.26,0.55,13.76-1.02,20.05c-0.65,2.61-0.18,5.5-1.86,7.86   c-0.16,0.22-0.25,0.57-0.23,0.84c0.3,3.3-1.1,6.43-1.18,9.6c-0.1,3.79-0.79,7.48-1.22,11.19c-0.36,3.09-0.95,6.27-2.14,9.29   c-1.12,2.83-1.75,5.85-2.63,8.77c-0.76,2.51-1.84,4.9-3.02,7.23c-0.28,0.55-0.6,1.13-1.32,0.91c-0.76-0.23-0.53-0.98-0.52-1.53   c0.06-2.08,1.01-4.01,1.62-5.88c0.7-2.15,1.31-4.46,1.57-6.53c0.37-3,1.77-5.75,1.7-8.79c-0.04-1.76-0.2-3.54,0.9-5.13   c0.31-0.45,0.46-1.15,0.39-1.7c-0.39-3.29,1.14-6.45,0.93-9.61c-0.34-5.08,1.23-9.88,1.56-14.86c0.36-5.51,0.82-11.1,1.81-16.61   c0.41-2.28,0.69-4.71,0.39-7.22c-0.36-3.02,0.15-6.17,0.53-9.23c0.16-1.29,0.67-2.55,0.64-3.91c-0.01-0.81,0.18-1.74,1.23-1.82   c1.18-0.1,0.82,0.94,1.03,1.58C193.57,490.41,192.06,495.95,192.63,500.53z"/>
</g>
</svg>