<svg class="svg" xmlns="http://www.w3.org/2000/svg" xmlns:xlink="http://www.w3.org/1999/xlink" version="1.1" id="Layer_1" x="0px" y="0px" style="enable-background:new 0 0 612 792;" xml:space="preserve" viewBox="81.6 79.81 478.3 588.01">
	<style type="text/css">
		.st0{fill:#E4E4EE;}
		.st1{fill:#E6E7E8;}
	</style>

	<path class="st1 abs" data-name="Abs" d="M225.86,331.3c-0.43,2.16,0.53,4.7-0.72,7.23c-1.29,2.6-3.31,3.67-5.9,3.65c-5.13-0.04-10.27-0.31-15.4-0.52  c-2.18-0.09-3.28-1.64-3.82-3.41c-2.15-7.07-1.75-14.12,1.41-20.73c1.32-2.77,3.63-4.95,7.63-3.87c5.62,1.52,10.54,4.29,14.9,7.89  C226.78,323.87,225.77,327.69,225.86,331.3z"/>
	<path class="st1 abs" data-name="Abs" d="M174.34,342.25c-7.45,0.86-9.21-3.24-9.88-9.86c-0.77-7.67,2.4-12.43,9.35-15.26c2.71-1.1,5.11-2.83,8.07-3.52  c3.06-0.72,5.24,0.27,6.7,2.73c4.18,7.08,5.12,14.52,1.9,22.27c-0.88,2.12-2.32,3.16-4.79,3.14  C181.96,341.72,178.23,342.06,174.34,342.25z"/>
	<path class="st1 abs" data-name="Abs" d="M180.27,345.54c2.08,0,4.15-0.01,6.23,0c5.91,0.05,6.64,0.6,7.27,6.48c1.04,9.74,1.36,19.51,1.08,29.3  c-0.05,1.72-0.41,3.43-0.64,5.15c-0.09,0.68-0.27,1.34-1.06,1.51c-1.21,0.26-2.17-0.09-3.16-0.95c-4.99-4.36-8.15-10.16-12.03-15.37  c-3.13-4.2-5.97-8.71-7.11-13.95c-0.72-3.3-0.99-6.69-1.45-10.04c-0.23-1.65,0.58-2.2,2.16-2.16  C174.45,345.59,177.36,345.54,180.27,345.54z"/>
	<path class="st1 abs" data-name="Abs" d="M196.4,371.94c0.06-7.13-0.36-14.28,1.06-21.34c0.61-3.03,2.18-5.01,5.45-5.04c5.16-0.06,10.32,0.03,15.48-0.04  c1.8-0.02,2.35,0.6,2.5,2.45c0.84,9.94-3.63,17.85-9.28,25.38c-3.17,4.22-6.28,8.49-9.47,12.69c-1.03,1.36-2.3,2.53-4.24,1.92  c-2.15-0.68-1.46-2.55-1.49-4.02C196.35,379.93,196.4,375.94,196.4,371.94z"/>
	<path class="st1 abs" data-name="Abs" d="M192.93,298.16c0.57,3.85-1.13,7.24-2.63,10.63c-0.43,0.98-1.4,1.85-2.78,1.77c-6.93-0.38-12.8,2.66-18.6,5.85  c-3.08,1.69-4.95,0.77-4.95-2.93c-0.01-7.79,1.29-14.77,9.52-18.71c4.72-2.26,9.05-5.33,14.14-6.88c2.34-0.71,3.54,0.64,4.14,2.41  C192.61,292.79,193.32,295.38,192.93,298.16z"/>
	<path class="st1 abs" data-name="Abs" d="M225.85,308.54c0,9.91-0.29,10.13-8.18,5.73c-4.22-2.35-8.7-3.56-13.45-3.65c-3.39-0.06-4.52-2.59-5.15-4.9  c-1.35-4.94-2.08-10.11-0.09-15.05c0.85-2.11,2.17-4.08,5.49-2.69c5.05,2.1,9.67,4.88,14.35,7.62  C224.18,298.74,226.84,303.06,225.85,308.54z"/>
	<path class="st1 abs" data-name="Abs" d="M204.19,264.84c3.77,0.95,8.4,1.36,12.14,4.09c2.76,2.01,4.15,4.8,2.89,8.44c-1.02,2.96,1.38,4.89,2.54,7.16  c1.16,2.28,2.51,4.45,3.72,6.7c0.6,1.12,0.47,2.11-0.5,3.14c-1.13,1.21-1.87,0.41-2.78-0.14c-6.08-3.64-12.41-6.81-18.84-9.78  c-2.19-1.02-3.43-2.94-4.01-5.12c-1.03-3.81-0.89-7.76-0.11-11.58C199.63,265.8,201.35,264.65,204.19,264.84z"/>
	<path class="st1 abs" data-name="Abs" d="M192.44,273.27c0.17,7.22-1.65,9.53-8.73,12.8c-5.3,2.45-10.33,5.52-15.47,8.32c-0.78,0.42-1.51,1.23-2.36,0.13  c-0.63-0.8-0.92-1.5-0.61-2.69c0.67-2.64,2.02-4.91,3.64-6.94c2.63-3.28,3.32-6.92,2.89-10.94c-0.26-2.45-0.07-4.57,2.9-5.44  c3.98-1.16,7.56-3.62,11.87-3.7c3.35-0.06,5.15,1.73,5.33,5.04C191.97,271,192.25,272.13,192.44,273.27z"/>

	<path class="st1 calves" data-name="Calves" d="M147.03,536.75c1.46,11.63,1.38,23.39,3.43,34.99c0.7,3.92,0.64,8.05,1.19,12.06  c0.84,6.1,1.97,12.13,3.21,18.16c1,4.82,2.05,9.59,3.51,14.29c0.06,0.19-0.06,0.44-0.1,0.67c-0.5-0.22-1.16-0.31-1.49-0.69  c-2.01-2.3-2.7-5.27-3.61-8.04c-2.4-7.36-4.19-14.84-5.14-22.59c-0.79-6.51-1.58-13.04-2.87-19.52c-1.72-8.69-4.69-17.18-4.09-26.31  c0.3-4.54,2.04-8.66,2.74-13.05c0.05-0.35,0.65-0.8,1.06-0.86c0.7-0.11,0.88,0.62,1.17,1.11  C147.85,530.05,146.95,533.46,147.03,536.75z"/>
	<path class="st1 calves" data-name="Calves" d="M248.62,542.57c-0.09,6.63,0.37,12.64-0.57,18.56c-0.87,5.42-2.18,10.76-3.2,16.15  c-0.64,3.39-0.66,6.87-1.06,10.3c-0.91,7.81-3.34,15.11-5.73,22.49c-0.54,1.65-1.33,3.14-2.06,4.67c-0.28,0.58-0.67,1.36-1.43,1.09  c-0.79-0.28-0.54-1.2-0.4-1.76c0.89-3.59,1.81-7.19,2.87-10.71c0.67-2.22,0.98-4.62,1.18-6.67c0.37-3.81,1.56-7.4,2.02-11.17  c1.14-9.47,1.34-19.04,3.17-28.46c0.74-3.81,0.9-7.86,1.07-11.78c0.26-5.8,0.42-11.58,1.15-17.35c0.12-0.92,0.21-2,1.34-2.1  c1.47-0.12,1.01,1.17,1.17,1.98C249.17,532.92,248.24,538.09,248.62,542.57z"/>
	<path class="st1 calves" data-name="Calves" d="M408.81,543.16c0.72,6.54,0,13.04-2.05,19.2c-1.45,4.35-3.05,8.85-6.23,12.44c-0.73,0.82-1.47,1.73-2.73,1.23  c-1.18-0.47-1.19-1.55-1.4-2.67c-0.89-4.74-1.92-9.45-2.95-14.15c-2.09-9.56-4.82-19.17-2.84-28.99c1.35-6.69,3.87-13.15,6.06-19.65  c0.54-1.61,2.2-1.91,3.5-0.78c3.87,3.36,5.99,7.63,6.83,12.74C408.13,529.37,409.49,536.15,408.81,543.16z"/>
	<path class="st1 calves" data-name="Calves" d="M410.28,559.7c1.5-6.43,0.96-12.98,1.2-19.5c0.27-7.48-1.78-14.67-2.38-22.04c-0.21-2.56-0.12-4.96,1.2-7.15  c1.51-2.51,4.16-2.6,5.83-0.19c1.51,2.19,1.87,4.75,2.43,7.36c2.29,10.82,2.73,21.75,2.27,32.71c-0.28,6.68-1.5,13.32-3.52,19.74  c-0.28,0.87-1,2.02-1.74,2.23c-0.87,0.24-1.33-1.06-1.71-1.84C412.13,567.44,409.57,564.1,410.28,559.7z"/>
	<path class="st1 calves" data-name="Calves" d="M465.77,544.3c0.15-9.72,1.2-18.35,2.24-26.96c0.32-2.65,1.61-5.49,3.69-7.41c1.35-1.25,3.45-1.47,4.72,0.49  c1.66,2.57,2.49,5.45,1.78,8.51c-2.31,9.87-3.76,19.85-3.28,30.01c0.12,2.68,0.79,5.33,1.14,8c0.71,5.48-1.03,10.18-3.31,14.88  c-0.28,0.58-0.77,0.98-1.4,0.73c-0.95-0.38-1.6-1.09-1.94-2.12C466.5,561.6,466.23,552.44,465.77,544.3z"/>
	<path class="st1 calves" data-name="Calves" d="M234.17,558.96c0.14,5.51-1.77,10.74-2.24,16.14c-0.63,7.17-2.76,14.04-3.84,21.11  c-0.24,1.55-0.69,3.06-1.12,4.57c-0.17,0.61-0.4,1.37-1.29,1.25c-0.81-0.11-1.07-0.77-1.04-1.48c0.17-3.83-0.35-7.57-0.96-11.35  c-0.79-4.9-2.14-9.66-3.12-14.5c-0.85-4.24-2.17-8.36-3.07-12.59c-1.5-7.04-0.53-14.05-0.84-21.07c-0.21-4.64,1.36-9.08,2.04-13.62  c0.1-0.65,0.5-1.04,1.14-1.15c0.66-0.12,1.2,0.14,1.43,0.73c2.21,5.81,7.75,9.56,9.88,15.24  C233.11,547.53,234.1,553.22,234.17,558.96z"/>
	<path class="st1 calves" data-name="Calves" d="M156.7,559.9c-0.2-8.9,0.27-16.86,6.08-23.33c2.39-2.67,4.64-5.35,5.79-8.83c0.23-0.68,0.83-1.93,1.85-1.72  c1.11,0.23,1.12,1.4,1.27,2.44c0.74,5.13,2.76,10.07,2.44,15.34c-0.4,6.75-1.72,13.37-3.22,19.96c-2.66,11.63-6.11,23.15-5.27,35.31  c0.07,1.05,0.56,2.68-1.06,2.89c-1.41,0.19-1.14-1.52-1.32-2.27c-1.61-6.71-3.33-13.42-4.44-20.22  C157.72,572.75,156.02,566.04,156.7,559.9z"/>
	<path class="st1 calves" data-name="Calves" d="M477.26,544.54c0.61-9.06,1.23-18.03,3.76-26.69c0.9-3.06,2.99-5.72,5.43-7.9c1.8-1.61,4.01-0.65,4.64,2.66  c0.66,3.46,2.2,6.58,2.93,10.01c2.08,9.81,1.36,19.69,0.63,29.45c-0.57,7.69-2.74,15.28-4.42,22.87c-0.44,1.98-2.12,1.52-3.33,0.49  c-2.09-1.77-2.96-4.37-4.15-6.71C478.87,561.11,477.76,552.85,477.26,544.54z"/>
	
	<path class="st1 hamstrings" data-name="Hamstrings" d="M390.46,481.79c0.75-5.44-0.77-10.85-0.13-16.36c0.5-4.36,2.09-8.38,2.85-12.66c1.59-9.03,3.47-17.97,3.3-27.21  c-0.07-3.7-0.51-7.47,0.98-11.05c1.49-3.58,5.33-8.25,9.8-6.77c1.32,0.44,1.55,1.08,1.73,2.27c0.54,3.63-0.71,7.08-1.22,10.54  c-1.66,11.17-2.63,22.35-2.29,33.63c0.06,1.97,0.11,4.05,0.72,5.89c1.62,4.84,0.69,9.34-1.68,13.53  c-4.08,7.23-6.71,14.91-8.07,23.07c-0.14,0.81-0.25,1.77-0.75,2.34c-0.76,0.86-0.48,2.99-2.19,2.54c-1.39-0.37-1.87-2.1-1.99-3.42  C391.01,492.7,389.76,487.31,390.46,481.79z"/>
	<path class="st1 hamstrings" data-name="Hamstrings" d="M429.1,451.6c-0.88,3.12-1.83,6.51-2.78,9.89c-1.54,5.44-3.11,10.82-2.97,16.6c0.19,7.45-1.5,14.73-2.52,22.07  c-0.11,0.76-0.69,1.36-1.51,1.47c-0.85,0.11-1.2-0.69-1.4-1.22c-1.86-4.96-3.83-9.87-5.08-15.07c-1-4.14-2.08-8.21-2.49-12.49  c-0.52-5.41-1.92-10.74-2.25-16.15c-0.71-11.77-0.18-23.52,1.99-35.15c0.66-3.52,0.73-7.18,2.6-10.39c0.53-0.92-0.2-2.67,1.51-2.76  c1.69-0.09,3.18,1.08,3.95,2.28c3.79,5.93,5.91,12.5,7.38,19.4c1.3,6.13,1.89,12.35,3.06,18.49  C428.75,449.47,428.88,450.36,429.1,451.6z"/>
	<path class="st1 hamstrings" data-name="Hamstrings" d="M478.18,446.21c-0.57,9.05-0.58,18.12-2.04,27.18c-1.45,8.99-4.54,17.34-7.37,25.85  c-0.31,0.93-1.01,1.55-2.08,1.45c-0.91-0.08-1.14-0.72-1.32-1.54c-1.33-5.98-2.14-11.99-2.05-18.17c0.11-7.98-1.81-15.62-4.53-23.11  c-0.74-2.04-0.86-4.39-0.86-6.6c0-6.67,1.19-13.2,2.56-19.71c1.39-6.57,3.39-12.9,6.37-18.91c0.32-0.65,0.78-1.26,1.25-1.82  c1.19-1.41,2.7-2.58,4.54-1.89c1.79,0.68,1.87,2.74,2.19,4.35c1.59,7.99,2.66,16.07,3.3,24.19  C478.37,440.38,478.18,443.31,478.18,446.21z"/>
	<path class="st1 hamstrings" data-name="Hamstrings" d="M479.86,447.47c0-1.75-0.1-3.5,0.02-5.24c0.73-10.64-0.96-21.08-2.67-31.5c-0.51-3.12,1.38-3.52,3.47-3.16  c5.52,0.93,8.08,3.87,8.63,9.81c0.57,6.18,0.64,12.41,1.19,18.58c0.54,6.07,0.94,12.25,3.08,18.13c0.85,2.34,1.19,4.99,1.22,7.5  c0.12,11.48,0.05,22.95,0.05,34.43c0,0.58,0.1,1.2-0.04,1.74c-0.36,1.33-0.54,3.16-2.12,3.31c-1.49,0.14-1.98-1.55-2.31-2.8  c-1.45-5.5-2.13-11.22-4.53-16.46c-1.7-3.72-3.47-7.41-5.36-11.03c-0.55-1.04-0.62-2.03-0.62-3.1  C479.86,460.94,479.86,454.2,479.86,447.47z"/>
	
	<path class="st1 lats" data-name="Lats" d="M429.5,288.13c0.3,2.38-0.92,4.06-2.59,5.4c-7.97,6.38-12.6,14.54-13.51,24.77c-0.12,1.35,0.07,3.41-1.27,3.74  c-1.84,0.45-1.77-1.84-2.32-2.98c-1.13-2.35-1.89-4.88-2.99-7.25c-1-2.17-1.87-4.52-3.81-6.04c-4.68-3.65-6.24-9.02-7.98-14.26  c-3.01-9.04-5.84-18.14-8.89-27.17c-2.36-6.99-4.29-14.05-4.61-21.46c-0.05-1.3,0.21-2.65,0.55-3.92c0.28-1.04,1.06-1.72,2.29-1.21  c4.2,1.74,8.6,2.64,13.1,2.12c4.5-0.51,7.28,1.3,8.93,5.33c3.72,9.11,9.94,16.73,15.02,25.03c2.93,4.78,5.81,9.6,7.6,14.97  C429.32,286.14,429.34,287.16,429.5,288.13z"/>
	<path class="st1 lats" data-name="Lats" d="M489.08,239.8c5.59,0.44,9.54-0.67,13.45-2.09c1.84-0.67,2.61,0.37,2.76,2.09c0.55,6.3-0.63,12.41-2.4,18.36  c-2.47,8.29-5.17,16.53-7.98,24.71c-2.19,6.36-2.97,13.5-7.36,18.74c-4.66,5.55-8.25,11.46-10.6,18.25  c-0.26,0.75-0.64,2.21-1.96,1.85c-1.15-0.31-1.03-1.55-1.12-2.54c-0.93-10.19-5.11-18.69-13.1-25.22c-3.84-3.13-4.15-5.81-1.8-11.25  c3.61-8.36,8.96-15.66,13.81-23.27c2.76-4.33,5.68-8.58,7.59-13.33C482.29,241.37,485.15,238.84,489.08,239.8z"/>
	
	<path class="st1 lower-back" data-name="Lower Back" d="M438.41,317.45c0,7.74,0.01,15.48-0.02,23.22c0,0.67,0.42,1.74-0.57,1.91c-0.78,0.13-1.01-0.88-1.46-1.46  c-3.32-4.27-7.31-7.86-11.46-11.33c-2.9-2.43-6.86-4.55-6.86-8.95c0-3.98,0.84-8.04,2.48-11.72c2.6-5.83,6.56-10.73,11.37-14.93  c0.62-0.54,1.28-1.05,1.95-1.53c1.1-0.78,2.37-1.57,3.67-1.03c1.49,0.62,0.85,2.19,0.86,3.36  C438.43,302.47,438.41,309.96,438.41,317.45z"/>
	<path class="st1 lower-back" data-name="Lower Back" d="M447.9,317.77c0-7.49,0.03-14.98-0.03-22.46c-0.01-1.64,0.28-3.05,1.88-3.7c1.6-0.65,2.83,0.13,3.93,1.34  c4.32,4.75,9.54,8.63,12.4,14.75c2.04,4.36,2.99,8.95,4.26,13.48c0.37,1.31-0.67,2.09-1.45,2.98c-4.35,4.95-10.13,8.23-14.78,12.81  c-1.4,1.37-2.53,3.02-3.75,4.57c-0.45,0.57-0.64,1.48-1.62,1.26c-1.2-0.27-0.82-1.3-0.82-2.05  C447.89,333.08,447.9,325.42,447.9,317.77z"/>
	
	<path class="st1 lower-traps" data-name="Lower Traps" d="M431.34,204.47c-1.6,5.18-1.25,11.4-0.8,17.47c0.59,7.85,1.3,15.75,3.09,23.47c0.09,0.4,0.25,0.81,0.25,1.21  c0,11.54,1.67,23.02,1.04,34.58c-0.06,1.07-0.17,2.24-1.26,2.44c-1.23,0.23-1.84-0.9-2.2-1.95c-3.66-10.62-9.31-20.13-16.03-29.08  c-5.51-7.34-8.3-15.71-9.05-24.9c-0.53-6.5-0.87-13.1-3.64-19.21c-0.64-1.4,0.35-1.53,1.37-1.53c8.78,0.04,17-2.31,24.99-5.74  C431.45,200.23,431.51,201.95,431.34,204.47z"/>
	<path class="st1 lower-traps" data-name="Lower Traps" d="M452.19,271.52c0.57-10.01,0.58-20.09,1.89-30c1.08-8.23,2.49-16.46,3.16-24.73c0.37-4.54-0.64-9.21-1.14-13.81  c-0.19-1.68,0.33-2.33,1.89-1.66c8,3.42,16.23,5.77,25.02,5.67c1.35-0.02,1.57,0.9,1.26,1.85c-1.16,3.48-1.98,7-2.69,10.62  c-0.93,4.75-0.65,9.54-1.57,14.29c-1.15,5.95-3.28,11.4-6.62,16.3c-4.75,6.96-9.71,13.75-13.43,21.36  c-1.44,2.94-3.06,5.78-3.77,9.06c-0.22,1.01-1.02,2.57-2.51,2.3c-1.36-0.25-0.6-1.66-0.78-2.56  C452.31,277.34,452.33,274.44,452.19,271.52z"/>
	
	<path class="st1 obliques" data-name="Obliques" d="M251.08,269.98c-0.7,3.16-2.45,5.89-4.39,8.23c-3.74,4.53-4.27,10.02-4.97,15.29  c-0.66,5.08-2.18,9.94-2.98,14.97c-1.07,6.78-0.89,13.48-0.05,20.28c0.74,6.04,3.18,11.75,3.31,17.86c0.06,3.03-0.32,6-3.42,7.69  c-2.17,1.19-4.26,2.54-6.5,3.58c-5.05,2.36-5.54,1.98-5.49-3.76c0.14-5.45,2.53-10.44,3.27-15.76c0.31-2.29,0.78-4.62,0.63-6.89  c-0.74-11.21-0.05-22.44-0.34-33.65c-0.18-6.81-2.61-13.1-5.16-19.28c-1.75-4.27-1.25-9.55,5.28-9.76c5.49-0.18,10.93-1.93,16.39-3  c1.64-0.32,3.5-0.91,4.81,0.12C252.97,267.09,251.39,268.6,251.08,269.98z"/>
	<path class="st1 obliques" data-name="Obliques" d="M149.17,345.54c0.95-5.02,1.91-10.05,2.84-15.07c1.58-8.57,1.5-17.1-0.39-25.63  c-1.2-5.41-2.49-10.83-3.18-16.31c-0.91-7.26-3.27-13.76-7.95-19.41c-0.67-0.81-1.98-1.89-1.18-2.96c0.7-0.93,2.12-0.26,3.27-0.08  c6.44,1.01,12.73,2.9,19.29,3.21c3.93,0.18,6.32,4.58,3.75,9.05c-6.22,10.79-5.87,22.4-5.68,34.12c0.1,6.24,0.18,12.49-0.04,18.73  c-0.22,6.25,1.69,12.07,2.98,18.04c0.49,2.26,0.87,4.56,1.08,6.86c0.18,2.03-0.71,3.38-2.95,2.49c-4.15-1.66-8.26-3.54-11.05-7.21  C148.69,349.71,149.17,347.54,149.17,345.54z"/>

	<path class="st1 quads" data-name="Quads" d="M252.31,434.28c1.3,7.9-0.56,15.27-0.96,22.7c-0.29,5.45-1.35,11.03-3.08,16.39c-0.78,2.42-0.23,5.15-1.06,7.76  c-0.67,2.11-1.47,3.09-3.67,3.16c-2.3,0.07-3.51-1.47-3.35-3.16c0.91-9.26-5.17-16.08-8.02-24.01c-2.16-6-4.05-12.11-6.58-17.95  c-3.36-7.77-1.48-15.4,0.05-23.01c0.72-3.58,0.94-7.28,1.16-10.77c0.52-8.26,2.78-16.27,2.8-24.55c0-0.08-0.01-0.17,0.01-0.25  c0.45-1.44,0.2-3.66,1.79-4.01c1.55-0.35,1.64,1.91,2.05,2.97c3.51,9.16,9.38,17.13,13.24,26.03  C250.67,414.72,254.35,424.24,252.31,434.28z"/>
	<path class="st1 quads" data-name="Quads" d="M136.6,448.61c-0.95-5.79-0.26-11.58,0.09-17.36c0.39-6.5,2.01-12.74,3.81-18.97c2.53-8.77,7.99-16.02,12-24.02  c1.61-3.21,2.83-6.62,4.27-9.92c0.33-0.76,0.45-2.11,1.69-1.68c0.96,0.33,1.62,1.14,1.59,2.5c-0.13,5.27,1.31,10.38,1.79,15.59  c0.41,4.51,1.13,8.98,1.61,13.47c0.79,7.47,2.1,14.89,2.3,22.44c0.1,3.84-1.19,7.28-2.29,10.74c-1.67,5.21-3.78,10.29-5.86,15.36  c-2.55,6.23-5.72,12.19-7.97,18.55c-0.56,1.57-0.44,3.12-0.4,4.67c0.04,1.94,0.04,3.89-2.38,4.18c-2.27,0.27-3.64-1.49-4.11-3.3  c-1.07-4.12-1.71-8.35-2.55-12.54c-1.08-5.42-2.2-10.84-3.26-16.27C136.71,450.93,136.71,449.76,136.6,448.61z"/>
	<path class="st1 quads" data-name="Quads" d="M168.09,384.19c0.95,3.87,0.88,8.64,2.24,13.3c1.3,4.46,1.48,9.24,2.37,13.84c0.87,4.48,2.03,8.91,3.05,13.37  c0.97,4.24,1.86,8.49,2.93,12.7c0.91,3.58,1.27,7.19,1.48,10.88c0.16,2.8-1.32,5.06-1.66,7.71c-0.54,4.15-2.09,8.17-3.24,12.24  c-0.14,0.5,0.05,1.39-0.81,1.27c-0.68-0.09-1.13-0.72-1.23-1.43c-1.28-8.89-2.96-17.72-3.62-26.71c-0.47-6.32-1.56-12.59-2.27-18.9  c-0.63-5.58-0.86-11.21-1.71-16.75c-1.61-10.57-2.14-21.29-4.32-31.78c-0.12-0.56-0.23-1.19-0.1-1.73c0.37-1.49-1.2-4.03,1.53-4.24  c2.46-0.18,4.26,2.04,4.23,4.09C166.91,375.94,168.56,379.55,168.09,384.19z"/>
	<path class="st1 quads" data-name="Quads" d="M209.63,446.76c-0.2-4.71,1.48-8.74,2.31-12.91c1.02-5.15,2.04-10.34,3.42-15.36c1.5-5.42,2.13-10.95,3.29-16.4  c1.67-7.8,2.88-15.72,3.68-23.65c0.28-2.77,0.21-5.49,1.18-8.18c0.71-1.95,2.35-2.38,3.75-2.1c1.75,0.35,1.34,2.11,1.17,3.56  c-0.97,8.02-1.55,16.11-2.91,24.06c-1.28,7.48-1.47,15.09-3.06,22.53c-0.73,3.44-0.89,7.03-1.22,10.55  c-0.34,3.62-0.59,7.24-1.07,10.85c-0.56,4.12-0.97,8.3-1.33,12.42c-0.49,5.58-1.95,10.98-2.24,16.56c-0.04,0.83-0.34,1.54-1.3,1.48  c-0.95-0.05-1.15-0.81-1.17-1.62c-0.13-6-3.05-11.37-3.99-17.2C209.88,449.69,209.55,448.08,209.63,446.76z"/>
	<path class="st1 quads" data-name="Quads" d="M173.17,486.21c-0.32,5.53-1.08,10.95-3.91,15.87c-0.93,1.61-2.18,2.27-3.65,1.09  c-7.59-6.1-13.04-13.66-13.78-23.59c-0.3-4.05,1.97-7.9,3.88-11.53c3.21-6.1,5.77-12.45,7.99-18.97c0.63-1.85,0.63-4.88,2.8-4.92  c1.43-0.03,1.53,3.18,1.47,4.77c-0.14,3.95,0.67,7.82,1.42,11.51c1.11,5.52,1.71,11.14,3.01,16.64  C173.09,480.02,172.94,483.16,173.17,486.21z"/>
	<path class="st1 quads" data-name="Quads" d="M216.58,485.1c0.18-6.53,1.63-12.87,2.92-19.24c0.7-3.46,1.43-6.98,1.52-10.49c0.08-3.29,0.97-6.36,1.51-9.52  c0.11-0.62,0.05-1.41,0.99-1.48c0.94-0.07,0.95,0.65,1.17,1.29c3.55,10.1,8.07,19.77,12.41,29.54c1.68,3.78,0.95,8.37-0.75,12.32  c-2.27,5.25-5.64,9.84-9.67,13.9c-3.4,3.43-5.26,3.22-7.16-1.14C217.44,495.47,216.25,490.41,216.58,485.1z"/>
	

	<path class="st1 shoulders" data-name="Shoulders" d="M257.84,195.27c9.74-1.25,17.39,2.85,21.58,12.79c2.06,4.89,2.82,10.12,3.35,15.4  c0.47,4.63,0.59,9.25,0.57,13.89c0,0.66,0.07,1.4-0.71,1.7c-0.67,0.25-1.08-0.16-1.42-0.69c-5.23-8.17-13.49-13.41-19.79-20.54  c-4.89-5.53-9.13-11.52-12.91-17.84c-1.91-3.2-0.91-4.7,2.72-4.7C253.13,195.26,255.05,195.27,257.84,195.27z"/>
	<path class="st1 shoulders" data-name="Shoulders" d="M133.41,196.26c2.24,0,4.49,0.1,6.73-0.02c2.86-0.16,3.19,1.28,2.19,3.39c-2.45,5.17-5.73,9.83-9.27,14.28  c-4.8,6.04-10.43,11.28-16.22,16.37c-3.04,2.67-5.75,5.7-7.6,9.4c-0.34,0.67-0.76,1.64-1.84,1.3c-0.76-0.23-0.84-0.98-0.82-1.66  c0.37-9.09,0.42-18.32,3.12-27.02c2.69-8.67,8.61-17.28,20.72-16.06C131.4,196.35,132.41,196.26,133.41,196.26z"/>
	<path class="st1 shoulders" data-name="Shoulders" d="M531.43,230.11c0.56,3.05-0.69,6.04,0.92,8.78c0.28,0.48,0.05,1.02-0.48,1.23c-0.69,0.28-1.25,0.1-1.71-0.57  c-6.44-9.53-15.03-17.18-22.44-25.85c-3.33-3.9-4.15-8.55-1.97-13.45c1.55-3.5,6.62-5.08,10.55-3.32  c8.5,3.8,12.43,10.93,13.75,19.62C530.75,221.09,532.21,225.61,531.43,230.11z"/>
	<path class="st1 shoulders" data-name="Shoulders" d="M375.17,196.19c5.56-0.75,7.37,5.37,7.3,10.31c-0.08,5.28-3.99,8.39-7.15,11.76  c-5.83,6.22-11.63,12.45-16.84,19.21c-0.74,0.96-1.55,2.56-2.79,2.05c-1.3-0.54-0.7-2.34-0.41-3.41c1.17-4.33,0.73-8.74,0.94-13.12  c0.36-7.44,1.93-14.58,6.84-20.47C366.15,198.77,370.28,196.66,375.17,196.19z"/>
	
	<path class="st1 spine" data-name="Spine" d="M446.47,214.26c0,15.98,0.42,31.97-0.11,47.93c-0.57,17.04-0.57,34.08-0.79,51.13  c-0.15,11.2-0.63,22.4-0.99,33.6c-0.04,1.18,0.22,2.99-1.48,2.89c-1.5-0.09-1.01-1.86-1.06-2.92c-1.15-23.66-0.87-47.35-1.42-71.02  c-0.57-24.19-1.05-48.37-0.97-72.56c0.04-11.39,0.03-22.79,0.72-34.15c0.38-6.16-0.35-12.47,1.6-18.51c0.25-0.79,0.12-1.78,1.27-1.8  c1.31-0.02,1.23,1.05,1.38,1.96c1.59,9.94,1.76,19.99,2.04,30c0.3,11.14,0.07,22.3,0.07,33.46  C446.63,214.26,446.55,214.26,446.47,214.26z"/>

	<path class="st0" d="M87.74,374.34c-0.74,0.06-1.35,0.39-1.42,1.15c-0.66,7.44-3.88,14.45-3.6,22.06c0.14,3.8,0.88,7.46,1.87,11.11  c0.22,0.81,0.47,1.89-0.43,2.24c-1.3,0.51-1.13-0.99-1.33-1.56c-1.12-3.16-1.18-6.42-1.22-9.8c-0.08-7.39,0.73-14.48,2.8-21.62  c0.9-3.09,1.26-6.63,1.29-10c0.1-11.24-0.17-22.49,0.11-33.72c0.2-8.04,1.44-15.97,3.18-23.89c1.49-6.81,4.62-12.9,6.77-19.39  c0.86-2.6,1.01-5.55,0.91-8.32c-0.34-8.66,0.29-17.28,1.2-25.84c0.59-5.5,2.06-10.95,3.9-16.27c1.04-3,1.49-6.21,1.71-9.43  c0.26-3.79,1.02-7.55,1.2-11.34c0.64-13.55,6.03-22.77,18.75-27.92c3.75-1.52,8.15-1.36,11.84-3.19c4.95-2.46,9.69-5.35,14.54-8.03  c5.47-3.03,10.89-6.18,16.47-8.99c4.83-2.42,6.99-6.53,8.95-11.27c2.37-5.73-0.43-10.34-1.66-15.52c-1.31-5.52-6.23-9.22-6.66-14.9  c-0.28-3.7-1.65-7.52,0.95-11.06c0.5-0.68,0.32-1.93,0.29-2.91c-0.25-6.48,0.27-12.91,1.93-19.16c2.34-8.8,9.16-13.1,17.16-15.61  c10.5-3.29,19.85-0.36,28.09,6.47c4.31,3.57,5.76,8.73,6.74,13.97c0.86,4.6,0.38,9.28,0.56,13.92c0.14,3.66,2.6,6.81,2.09,10.77  c-0.45,3.52-0.93,6.99-3.05,9.76c-2.81,3.67-3.81,7.94-5.07,12.17c-0.18,0.62-0.31,1.37-0.73,1.79c-3.33,3.32-1.34,6.46-0.11,9.93  c3.67,10.31,12.96,13.88,21.41,18.52c4.9,2.69,9.7,5.56,14.73,7.97c2.69,1.29,5.75,1.8,8.67,2.58c8.77,2.33,17.01,5.53,22.03,13.8  c2.38,3.91,3.62,8.24,4.45,12.73c1.04,5.66,0.55,11.41,1.14,17.05c0.49,4.67,2.28,9.22,3.57,13.8c2.29,8.14,2.8,16.54,3.75,24.88  c0.71,6.19,0.88,12.39,1.15,18.61c0.13,2.98,1.95,5.86,2.86,8.83c2.63,8.61,5.37,17.15,6.57,26.17c1.88,14.11,0.42,28.23,0.86,42.33  c0.16,5.18,1.29,10.14,2.88,14.95c2.57,7.78,2.89,15.31-0.14,23.05c-2.2,5.62-4.25,11.3-8.29,15.89c-2.37,2.69-5.4,4.65-8.64,6.17  c-2.05,0.96-4.35,1.64-6.21-0.28c-1.87-1.93-1.41-4.46-0.5-6.54c3.23-7.37,5-14.98,4.47-23.05c-0.1-1.54-0.44-3.4-1.88-3.75  c-1.64-0.4-1.83,1.75-2.26,2.81c-0.87,2.11-1.35,4.41-1.81,6.67c-0.2,1-0.67,1.7-1.4,2.24c-0.54,0.4-1.27,1.26-1.89,0.49  c-0.59-0.74,0.51-1.01,0.91-1.47c1.79-2.08,1.48-4.86,2.15-7.27c0.73-2.62,2.58-4.18,3.96-6.18c0.65-0.94,1.77-0.78,2.11,0.39  c1.9,6.47,2.2,12.94,0.49,19.58c-0.97,3.76-2.09,7.39-3.68,10.94c-0.6,1.34-0.58,3.14,0.95,4.33c1.42,1.09,2.8,0.73,4.18-0.04  c8.46-4.75,12.93-12.33,15.79-21.34c2.03-6.39,2.93-12.63,0.9-19.12c-2.27-7.24-3.26-14.73-4.37-22.19  c-0.23-1.52-0.49-1.65-1.65-0.46c-2.19,2.25-4.82,2.43-7.41,0.65c-5.11-3.52-8.47-8.64-11.81-13.66c-2.73-4.1-5.47-8.21-7.73-12.64  c-1.63-3.19-2.32-6.57-2.77-9.82c-0.69-4.98-0.32-10.14-0.14-15.21c0.07-1.95,1.57-2.37,2.96-1.04c1.73,1.65,3.28,3.52,4.81,5.37  c1.11,1.34,2.3,2.62,4.15,2.07c1.78-0.53,1.74-2.21,2.08-3.82c1.06-4.99,3.07-9.69,5.47-14.18c0.78-1.46,2.19-1.04,2.9,0.39  c2.72,5.45,4.12,11.29,5.71,17.15c3.24,11.98,1.98,24.07,2.34,36.14c0.01,0.35,0.26,1,0.4,1c0.76,0.02,0.51-0.66,0.57-1.09  c0.99-6.99,1.62-14.05,0.88-21.04c-0.66-6.25-1.45-12.5-2.99-18.71c-1.98-7.97-5.68-15.48-7.03-23.44  c-1.13-6.67-1.51-13.64-1.49-20.56c0.01-5.11-1.42-10.23-2.14-15.35c-1.54-10.95-5.73-21.38-5.79-32.65  c-0.05-9.26-2.04-18.02-9.56-24.58c-3.2-2.79-6.8-4.96-10.78-5.79c-9.87-2.06-18.65-6.41-27.29-11.35  c-5.95-3.4-12.12-6.35-17.53-10.67c-3.38-2.69-4.9-6.37-6.5-10.05c-1.87-4.32-1.86-4.37-5.34-1.2c-2.54,2.31-4.61,5.1-8.11,6.37  c-5.46,1.98-12.9,0.39-16.62-3.99c-1.34-1.58-2.74-3.11-4.13-4.65c-0.42-0.46-0.63-1.29-1.52-1c-0.77,0.25-0.74,0.95-0.94,1.6  c-1.09,3.6-2.15,7.2-4.31,10.4c-3.03,4.47-7.98,6.15-12.34,8.51c-8.06,4.37-16.16,8.68-23.95,13.5c-3.55,2.2-7.52,2.25-11.3,3.24  c-7.34,1.92-12.5,6.29-16,12.87c-4.02,7.55-3.42,15.97-4.46,24.06c-0.71,5.57-1.91,10.93-3.66,16.28c-1.43,4.39-1.84,9.16-2.35,13.8  c-1.12,10.14-1.66,20.31-1.74,30.53c-0.02,3.19-2.37,6.38-3.7,9.55c-3.42,8.13-5.15,16.7-5.5,25.42c-0.4,10.06-0.1,20.15-0.08,30.22  c0,0.61-0.28,1.74,0.38,1.74c1.07,0.01,0.52-1.14,0.59-1.77c1.18-10.52-0.53-21.21,1.58-31.65c1.59-7.9,2.85-15.95,6.91-23.14  c0.34-0.6,0.63-0.97,1.29-0.85c0.83,0.15,1.75,0.41,2.03,1.27c1.6,4.79,4.7,9.09,4.71,14.41c0,1.63,1.21,2.55,2.51,3.12  c1.23,0.54,2.2-0.27,3.03-1.18c1.95-2.15,3.91-4.29,5.91-6.4c0.94-0.99,2.33-1.15,2.37,0.38c0.17,6.02,0.68,12.15-0.19,18.06  c-1.38,9.39-7.56,16.57-12.78,24.13c-2.17,3.15-4.49,6.16-7.3,8.75c-3.71,3.43-7.33,3-10.04-1.16c-0.22-0.34-0.28-0.85-0.8-0.69  c-0.26,0.08-0.55,0.44-0.61,0.71c-0.72,3.32-1.11,6.66-0.08,10C87.76,372.36,87.75,373.35,87.74,374.34z M197.26,81.53  c-7.75,0.06-13.7,1.94-18.81,5.77c-3.3,2.48-5.59,5.95-6.89,10.05c-1.57,4.96-0.73,9.99-0.94,14.99c-0.09,2.05,0.16,4.52-0.87,6.05  c-3.52,5.28-1.8,10.39,0.17,15.29c1.38,3.42,3.72,6.27,4.67,10.15c1.75,7.14,6.67,12.63,12.12,17.46c3.97,3.52,8.82,4.69,13.51,2.33  c7.02-3.53,11.51-9.7,14.91-16.68c1.56-3.19,1.49-7.1,3.78-9.83c2.9-3.45,3.66-7.47,4.13-11.63c0.2-1.77,0.62-3.85-0.7-5.31  c-2.11-2.33-1.74-5.04-1.75-7.74c-0.01-2.71,0.18-5.44-0.05-8.13c-0.33-3.85-0.73-7.75-2.9-11.11  C212.6,85.34,205,82.08,197.26,81.53z"/>
	<path class="st0" d="M163.32,264.44c-4.66,0.47-9.7-0.72-14.55-2.61c-4.82-1.89-8.06-5.65-8.43-10.74  c-0.58-8.02-4.54-14.62-7.92-21.47c-1.66-3.37-2.49-6.19,0.54-9.38c6.24-6.55,10.84-14.31,15.43-22.05c1.48-2.5,6.62-4.12,9.58-3.54  c5.28,1.04,10.64,1.7,15.88,2.91c7.09,1.62,12.05,5.94,14.17,13c2.35,7.82,4.18,15.81,3.53,24.02c-0.53,6.65-0.12,13.65-4.63,19.4  c-5.21,6.65-11.93,10.38-20.49,10.47C165.61,264.45,164.78,264.44,163.32,264.44z"/>
	<path class="st0" d="M200.11,232.49c-0.53-4.31-0.16-10.02,1.19-15.43c1.53-6.1,3.18-12.66,9.01-16.34  c3.57-2.26,7.77-3.5,12.01-4.22c3.24-0.55,6.62-0.54,9.72-1.51c5.46-1.71,10.56,2.29,12.42,5.82c3.33,6.31,7.31,12.19,12.16,17.45  c2.98,3.23,3.54,7.99,1.54,12.36c-2,4.37-4.51,8.49-6.09,13.06c-0.81,2.36-1.01,4.88-1.28,7.22c-0.77,6.76-7.74,11.42-12.62,12.45  c-4.11,0.87-8.29,1.27-12.54,1.12c-10.94-0.4-19.22-5.13-24.03-15C199.24,244.62,200.2,239.11,200.11,232.49z"/>
	<path class="st0" d="M440.56,375.64c-0.83,7.2-1.84,14.32-8.67,18.33c-5.87,3.44-12.07,5.19-19.28,3.68  c-9.74-2.05-15.41-8.14-18.23-16.86c-2.03-6.27-0.94-12.97,1.32-19.19c2.05-5.64,3.15-11.43,3.15-17.36c0-3.35,0.4-6.6,1.24-9.73  c1.13-4.16,5.26-4.01,8.29-3.92c6.36,0.19,12.63,1.57,17.74,5.78c5.23,4.3,8.24,9.88,10.23,16.46  C438.62,360.37,439.57,368.02,440.56,375.64z"/>
	<path class="st0" d="M487.86,342.66c0,5.98,0.9,11.79,3.03,17.43c0.62,1.65,0.84,3.59,0.69,5.36c-0.59,7.05,1.95,14.38-1.6,21.14  c-3.13,5.95-8.19,9.14-14.74,10.89c-6.84,1.83-12.82,0.29-18.71-2.7c-4.67-2.38-7.43-6.38-8.64-11.43  c-1.95-8.13-0.96-15.99,1.22-24.05c1.34-4.98,2.39-10.04,4.83-14.55c3.68-6.8,9.15-11.38,17.07-13.04c3.24-0.68,6.38-0.76,9.58-0.8  c5.27-0.08,6.97,1.6,7.26,7.02C487.93,339.49,487.86,341.07,487.86,342.66z"/>
	<path class="st0" d="M352.99,369.86c1.14-0.15,1.96-0.81,1.94-1.92c-0.18-8.57,4.95-15.01,8.8-21.93  c3.18-5.72,5.27-11.75,6.86-18.09c1.59-6.36,0.52-12.7,0.81-19.04c0.11-2.44,0.73-4.45,2.15-6.4c3.09-4.25,4.67-9.12,6.08-14.18  c1.3-4.66,1.47-9.55,3.3-14.06c0.37-0.9,0.79-1.75,1.87-1.7c1.11,0.06,1,1.11,1.26,1.88c2.95,9.01,5.52,18.18,9.03,26.96  c2.38,5.94,2.75,11.91,2.23,17.95c-0.49,5.8-1.96,11.51-2.97,17.26c-0.5,2.83-1.04,5.65-1.39,8.5c-0.71,5.78-1.92,11.46-3.35,17.09  c-1.25,4.91-2.39,9.85-3.7,14.74c-6.34,23.7-5.07,47.95-4.71,72.05c0.1,6.59,1.79,13.43,4.2,19.86c0.84,2.25,1.61,4.6,1.59,7.16  c-0.04,7.67-0.29,15.39,1.09,22.94c0.68,3.7,1.92,7.37,2.28,11.11c0.55,5.65-1.73,10.96-2.82,16.41  c-1.47,7.34-2.34,14.65-0.93,22.14c1.15,6.13,1.89,12.35,2.84,18.52c0.88,5.66,1.8,11.32,2.71,16.98c0.59,3.65,1.48,7.29,1.7,10.96  c0.29,4.78,1.32,9.43,1.98,14.14c1.04,7.5,3.09,14.95,1.58,22.6c-1.09,5.51-4.88,9.6-7.95,14.05c-4.22,6.12-9.79,10.72-16.2,14.38  c-0.73,0.41-1.59,1.06-1.15,1.96c0.77,1.55,2.19,2.5,3.86,2.89c5.19,1.21,10.56,0.75,15.79,1.53c3.44,0.51,5.99-1.61,8.75-2.95  c3.62-1.76,7.35-2.79,11.36-3.08c6.72-0.48,9.04-1.99,7.8-9.33c-2.77-16.47-4.52-32.94-3.72-49.63c0.32-6.59,0.34-13.31,1.7-19.71  c1.53-7.22,3.84-14.29,5.46-21.53c2.11-9.43,1.5-18.99,1.11-28.46c-0.24-5.65-2.1-11.25-3.48-16.81c-0.73-2.95,0.71-5.38,1.53-7.84  c2.06-6.15,3.28-12.37,3.13-18.84c-0.21-8.53,2.09-16.61,4.21-24.75c1.8-6.9,3.11-13.92,4.4-20.94c1.3-7.05,1.56-14.22,3.11-21.24  c0.75-3.42,1.01-7.08,1.09-10.56c0.1-4.34,1.47-8.51,1.21-12.84c-0.06-0.93,0.32-1.65,1.36-1.75c0.92-0.09,1.85-0.13,2.53,0.69  c0.46,0.55,0.58,1.2-0.33,1.21c-2.33,0.02-1.93,1.63-2.13,3.12c-1.18,8.89-1.82,17.83-3.19,26.71c-0.99,6.42-1.43,12.94-2.8,19.31  c-1.24,5.76-2.21,11.57-3.83,17.26c-1.51,5.28-2.83,10.6-3.28,16.2c-0.82,10.21-0.68,20.63-5,30.32c-1.49,3.34,0.31,6.7,0.96,9.95  c1.41,7.06,2.8,14.01,1.83,21.32c-0.59,4.47,0.95,9.05-0.13,13.61c-1.44,6.03-2.22,12.18-4.07,18.15c-1.45,4.67-2.18,9.6-2.89,14.47  c-1.79,12.23-1.19,24.56-0.89,36.84c0.16,6.52,1.83,13,2.99,19.48c0.81,4.57,1.46,9.56-0.69,14.15c-0.66,1.4-1.93,2.52-3.54,2.41  c-6.83-0.44-12.71,2.35-18.52,5.32c-0.95,0.48-1.79,0.73-2.79,0.73c-4.91-0.01-9.85,0.29-14.73-0.11c-3.24-0.27-6.75-0.66-8.97-3.78  c-1.28-1.8-1.5-3.52,0.73-4.51c6.8-3,11.27-8.59,15.86-14.03c2.18-2.59,4.57-5.05,6.01-8.18c2.96-6.41,2.7-13.13,1.74-19.85  c-0.94-6.6-2.19-13.15-3.19-19.74c-1.08-7.08-2.03-14.18-3.02-21.28c-0.52-3.73-0.88-7.49-1.53-11.2  c-0.95-5.4-2.35-10.73-3.08-16.15c-0.78-5.75-1.03-11.63,0.1-17.34c1.76-8.95,4.53-17.8,2.91-27.02  c-0.99-5.68-2.71-11.25-2.36-17.09c0.2-3.38,0.55-6.7,0.15-10.14c-0.49-4.24-2.08-8.11-3.05-12.18c-1.64-6.89-3.15-13.79-3.13-20.93  c0.02-10.18-0.18-20.37,0.07-30.55c0.19-7.77,0.4-15.61,1.61-23.27c1.37-8.71,3.8-17.24,6.46-25.71c1.42-4.52,2.37-9.32,3.01-14.15  c0.76-5.66,1.72-11.34,2.87-16.97c1.61-7.87,3.77-15.96,2.28-24c-1.1-5.94-3.54-11.69-5.82-17.34c-1.85-4.58-2.69-9.44-4.46-14.03  c-0.22-0.57,0.13-1.5-0.86-1.49c-0.96,0.01-1.04,0.83-1.17,1.61c-1.51,8.97-3.61,17.74-8.81,25.45c-1.68,2.5-2.01,5.28-1.73,8.29  c1.23,13.38-1.94,25.7-9.17,37.03c-4.42,6.94-8.05,14.13-7.35,22.82c0.2,2.51,0.78,4.68,2.16,6.69c3.3,4.82,5.43,9.96,4.95,15.96  c-0.23,2.81-0.07,5.65-0.36,8.45c-0.15,1.41-0.58,2.96-2.69,2.98c-2.06,0.02-3.53-0.3-4.61-2.47c-1.18-2.39-0.22-5.16-1.83-7.38  c-0.68-0.95-1.15-2.24-2.51-2c-1.33,0.23-0.81,1.58-1.03,2.49c-2.28,9.5,1.41,18.06,4.15,26.78c0.64,2.04,0.8,3.97-1,5.72  c-1.59,1.54-3.01,1.63-4.88,0.54c-1.97-1.15-4.13-1.98-6.16-3.03c-0.57-0.29-1.27-0.88-0.91-1.58c0.54-1.07,1.1,0.01,1.58,0.24  c1.93,0.93,3.86,1.88,5.73,2.92c1.31,0.73,2.53,0.95,3.61-0.23c1.05-1.15,1.07-2.44,0.5-3.94c-2.98-7.81-5.02-15.86-5-24.26  c0.01-2.9,0.98-5.76,2.36-8.42c0.81-1.55,1.27-0.25,1.82,0.13c3.92,2.67,4,7.16,5.16,11.11c0.3,1.04,0.26,1.88,1.68,1.89  c1.33,0.01,2.54-0.34,2.64-1.69c0.35-4.54,0.63-9.1-0.16-13.64c-0.82-4.7-3.46-8.53-6.07-12.33c-0.78-1.14,0.41-3.85-2.51-3.36  C353.17,372.18,353.7,371.02,352.99,369.86z"/>
	<path class="st0" d="M140.55,667.6c-4.93,0.01-9.22,0.27-13.41-1c-2.56-0.78-4.18-2.61-4.72-4.98c-0.44-1.95,1.76-2.32,3.08-3.01  c7.27-3.83,11.87-10.44,17.13-16.37c7.09-7.99,6.37-17.35,4.73-26.9c-0.68-3.98-1.11-8.01-1.68-12.01  c-0.92-6.43-1.89-12.85-2.79-19.28c-0.61-4.4-1.02-8.83-1.74-13.22c-0.85-5.19-2.11-10.32-2.87-15.53  c-1.11-7.57-2.27-15.05-0.95-22.87c1.05-6.24,2.81-12.29,3.76-18.5c0.64-4.21-1.29-8.29-1.77-12.47c-0.66-5.77-2.7-11.44-0.87-17.39  c1.14-3.71-0.26-7.49-1.24-10.93c-2.94-10.32-5.71-20.59-5.54-31.46c0.13-8.57-0.34-17.17,0.13-25.72  c0.49-8.8,0.72-17.61,2.16-26.41c1.58-9.63,4.18-18.87,6.96-28.16c1.63-5.46,1.62-11.38,2.8-17.01c1.64-7.81,2.76-15.72,4.18-23.56  c1.05-5.84,0.6-11.92-1.69-17.83c-2.89-7.47-6.08-14.89-7.6-22.84c-0.21-1.1-1.12-2.02-0.98-3.28c0.02-0.21-0.34-0.67-0.53-0.67  c-0.7,0.01-0.88,0.66-1.12,1.17c-0.99,2.11-1.24,4.51-1.56,6.68c-1.18,7.93-4.48,14.91-8.48,21.65c-2.47,4.16-0.67,8.4-0.7,12.62  c-0.05,6.4-1,12.61-3.24,18.71c-3.01,8.19-8.8,14.88-11.75,23.09c-2.69,7.48-2.7,14.13,2.24,21.03c4.09,5.72,3.82,12.87,2.89,19.69  c-0.26,1.87,0.95,4.92-2.86,4.99c-3.26,0.05-5-1.67-5.3-5.48c-0.08-0.98-0.1-2.02-0.43-2.93c-0.53-1.49-0.79-3.93-2.63-3.68  c-1.62,0.22-1.8,2.65-1.88,4.25c-0.4,8.35,0.85,16.46,4.21,24.15c0.92,2.11,1.39,4.21-0.04,6.07c-1.56,2.03-3.62,2.72-6.08,1.12  c-1.71-1.11-3.59-1.98-5.39-2.95c-0.59-0.32-0.9-0.84-0.62-1.45c0.43-0.93,0.94-0.19,1.38,0.06c1.79,1.01,3.62,1.95,5.35,3.07  c1.37,0.88,2.57,1.1,3.78-0.17c1.22-1.27,1.12-2.72,0.47-4.15c-3.33-7.31-4.48-15.14-4.96-23c-0.19-3.12,0.98-6.45,2.09-9.48  c0.74-2.03,2.04-0.43,2.79,0.43c2.69,3.09,3.81,6.9,4.33,10.82c0.28,2.08,1.48,1.79,2.79,1.8c1.63,0.01,1.85-1.03,1.84-2.34  c-0.03-4,0.44-8.06-0.14-11.97c-0.59-3.95-2.33-7.69-4.76-10.98c-3.64-4.92-2.63-10.18-1.53-15.65c1.96-9.75,9.11-16.92,12.43-25.97  c1.95-5.3,3.12-10.72,3.5-16.35c0.38-5.58-1.13-11.29,1-16.75c1.19-3.07,3.57-5.44,4.82-8.59c1.28-3.24,2.1-6.56,3.02-9.86  c1.1-3.93,1.79-7.98,2.64-11.98c0.13-0.61,0.29-1.15,0.95-1.32c0.9-0.24,1.38,0.43,1.87,0.98c1.43,1.57,1.43,3.73,1.87,5.59  c1.84,7.85,4.81,15.31,7.63,22.8c2.97,7.89,2.89,15.68,0.91,23.77c-1.34,5.48-1.71,11.19-2.7,16.76c-1.43,8.02-2.8,16.06-4.65,23.98  c-1.53,6.54-3.92,12.88-5.53,19.4c-0.89,3.58-1.07,7.41-1.21,11.06c-0.58,15.67-1.87,31.34-1.1,47.03  c0.39,8.01,1.5,15.92,4.13,23.63c1.36,3.99,2.33,8.23,2.33,12.57c-0.01,6.14-0.36,12.32,0.54,18.42c0.57,3.88,1.9,7.6,2.03,11.62  c0.19,5.64-1.22,10.96-2.47,16.32c-2.22,9.5-2.07,18.92-0.03,28.44c1.24,5.76,1.89,11.65,2.93,17.46c0.98,5.44,1.31,10.98,2.2,16.38  c1,6.07,2.09,12.18,2.92,18.25c0.9,6.53,2.41,12.98,2.84,19.57c0.29,4.4-1.52,8.27-3.74,11.78c-5.3,8.38-11.36,16.13-20.17,21.23  c-1.04,0.6-2.44,1.12-2,2.75c0.43,1.61,1.74,2.34,3.27,2.73c5.52,1.39,11.22,0.69,16.79,1.53c2.98,0.45,5.28-1.45,7.56-2.67  c4.5-2.4,9.29-3.03,14.14-3.81c4.62-0.75,6-3.19,5.63-7.96c-0.57-7.34-2.6-14.42-3.21-21.78c-0.36-4.3-0.6-8.48-0.33-12.77  c0.27-4.3-0.16-8.62-0.35-12.93c-0.4-8.78,0.46-17.52,2.48-26.09c1.22-5.16,3.28-10.14,4.2-15.34c1.64-9.3,2.3-18.7,1.49-28.18  c-0.44-5.19-1.08-10.31-2.21-15.4c-0.23-1.05-0.38-2.09-0.85-3.08c-0.97-2.05-1.04-4.02,0.11-6.15c1.51-2.82,1.86-6.06,2.71-9.12  c2.38-8.54,1.02-17.46,2.59-26.03c1.24-6.78,3.57-13.36,5.12-20.09c1.31-5.68,2.37-11.44,3.2-17.21c1.23-8.47,2.34-16.97,3.15-25.48  c0.44-4.59,1.76-9.1,1.39-13.76c-0.19-2.32,1.13-2.73,2.97-2.3c0.48,0.11,1.1,0.65,1.21,1.11c0.23,0.9-0.69,0.69-1.18,0.83  c-1.15,0.32-1.43,1.06-1.54,2.21c-0.9,9.45-2.25,18.85-3.24,28.27c-0.69,6.57-1.77,13.09-2.88,19.55  c-1.26,7.36-2.87,14.72-5.41,21.84c-1.64,4.59-1.69,9.58-1.84,14.41c-0.25,7.62-1.23,15.09-3.16,22.44  c-0.29,1.1-0.83,2.15-1.41,3.14c-1.76,3-0.59,6.01,0.28,8.8c2.68,8.57,3.23,17.48,2.97,26.21c-0.26,8.61-1.4,17.27-3.86,25.76  c-2.04,7.03-3.73,14.22-4.09,21.77c-0.46,9.54-1.1,19.09-0.66,28.61c0.34,7.45,0.75,14.96,2.77,22.26c1.26,4.56,0.63,9.28,0.48,13.9  c-0.07,2-1.99,4.02-3.93,3.9c-6.94-0.46-12.82,2.24-18.66,5.32C147.04,668.58,143.4,667.04,140.55,667.6z"/>
	<path class="st0" d="M470.35,110.59c0.13,3.92-0.06,7.34,1.84,10.87c1.84,3.41,0.61,7.84-1.28,10.95  c-3.9,6.45-5.22,13.95-9.09,20.35c-1.2,1.98,0.62,3.72,1.12,5.53c2.51,8.99,9.56,13.68,17.2,17.72c7.27,3.85,14.42,8.01,21.95,11.29  c4.44,1.93,9.58,2.24,14.09,4.23c6.42,2.82,12.04,6.5,15.25,13.25c3.42,7.2,3.79,14.87,4.37,22.55c0.48,6.24,1.59,12.29,3.6,18.3  c1.67,5.01,2.23,10.44,2.84,15.74c1.13,9.7,1.65,19.46,2.24,29.21c0.23,3.76,2.42,7.39,3.7,11.09c1.99,5.74,3.32,11.65,4.67,17.57  c2.16,9.46,1.82,19.04,2,28.62c0.06,3.13-0.94,6.03-1.06,9.07c-0.42,10.48,2.39,20.42,5.22,30.34c1.6,5.61,0.91,11.06-0.98,16.49  c-1.18,3.41-2.77,6.62-4.16,9.93c-2.74,6.52-7.93,10.5-13.63,13.95c-1.78,1.08-3.95,0.84-5.73-0.84c-2.33-2.21-1.24-4.66-0.4-6.85  c2.66-6.96,4.85-13.96,4.19-21.55c-0.03-0.33,0.03-0.67-0.01-1c-0.2-1.53-0.42-3.76-1.91-3.79c-1.59-0.03-2.28,2-2.62,3.73  c-0.47,2.39-1.08,4.77-1.79,7.1c-0.3,0.99-1.22,1.92-2.27,1.07c-0.94-0.76,0.18-1.44,0.69-2.01c1.76-1.94,0.25-4.77,1.88-6.76  c0.28-0.34,0.13-1.02,0.38-1.4c1.26-1.88,2.2-5.15,4.53-4.67c2.43,0.51,2.31,3.95,2.54,6.21c0.85,8.51-0.98,16.6-4.4,24.38  c-0.74,1.68-1.07,3.39,0.53,4.8c1.45,1.28,2.77,0.65,4.3-0.13c8.6-4.41,12.64-12.14,15.69-20.77c2.17-6.14,3.18-12.36,1.34-18.64  c-1.16-3.93-2.24-7.87-3.1-11.86c-0.68-3.13-1.19-6.36-1.24-9.55c-0.15-10.28-0.08-20.57-0.05-30.86  c0.02-8.05-1.44-15.81-3.66-23.56c-1.89-6.61-4.22-13.06-6.15-19.63c-1.51-5.15-0.77-10.57-1-15.84c-0.22-4.9-0.63-9.84-1.46-14.56  c-1.21-6.91-2.16-13.92-4.46-20.7c-2.2-6.47-1.9-13.47-2.35-20.31c-0.89-13.59-6.9-23.78-21-27.6c-9.35-2.53-18.07-6.19-26.42-11.03  c-4.32-2.51-8.62-5.1-13.02-7.44c-6.72-3.56-9.34-9.8-12.48-16.01c-2.51-4.96,1.8-7.78,2.59-11.65c1.03-5.02,4.13-9.05,5.95-13.64  c1.82-4.59,3-9.53-0.36-14.34c-0.94-1.35-0.86-3.48-1.06-5.28c-0.38-3.28,0.07-6.6,0.15-9.86c0.27-11.07-10.42-18.47-18.17-20.39  c-9.32-2.31-17.22,0.09-24.48,5.67c-4.36,3.35-6.49,8.08-6.95,13.47c-0.45,5.28-1.46,10.53-1.04,15.86  c0.03,0.33,0.08,0.73-0.08,0.98c-4.56,7.48-0.34,13.53,3.01,19.86c2.42,4.56,3.74,9.63,5.78,14.39c1.15,2.68-1.39,5.92-2.07,8.94  c-1.89,8.45-9.15,11.24-15.58,14.73c-7.75,4.2-15.69,8.09-23.05,12.95c-3.8,2.51-8.17,2.45-12.24,3.66  c-7.95,2.35-13.78,7.05-16.66,14.9c-2.91,7.93-2.93,16.32-3.63,24.62c-0.5,5.92-2.92,11.47-4.29,17.23  c-0.59,2.47-1.47,4.96-1.53,7.45c-0.18,7.29-1.61,14.5-1.13,21.84c0.5,7.57-1.38,14.55-4.47,21.58c-2.9,6.62-4.42,13.82-5.15,21.25  c-1.38,14.05-0.19,28.09-0.93,42.1c-0.38,7.27-1.58,14.46-3.51,21.59c-1.66,6.11-2.09,12.48-0.63,19.01  c0.99,4.44,1.94,8.78,4.05,12.79c0.76,1.45,1.97,2.65,2.93,3.99c0.38,0.54,1.59,0.94,0.84,1.73c-0.66,0.7-1.38-0.24-1.89-0.67  c-3.01-2.55-4.24-6.24-5.51-9.72c-2.05-5.59-2.91-11.42-2.75-17.49c0.15-5.69,2.38-10.89,2.99-16.45c0.48-4.4,1.89-8.74,2.01-13.14  c0.3-10.98,0.11-21.98,0.1-32.97c-0.01-9.45,1.6-18.58,4.23-27.69c1.52-5.26,4.39-9.92,5.69-15.21c0.28-1.14,0.58-2.22,0.58-3.39  c-0.01-5.74-0.13-11.49,0.02-17.23c0.2-7.49,1.35-14.83,3.28-22.12c1.93-7.28,3.68-14.54,3.93-22.27  c0.26-8.21,1.42-16.66,6.73-23.63c4.52-5.94,10.73-9.18,17.94-10.51c4.1-0.75,8.04-2.1,11.41-4.32c8.22-5.41,17-9.79,25.68-14.3  c5.34-2.78,7.29-7.19,9.61-12.12c2.57-5.47-0.54-9.59-1.61-14.33c-1.05-4.65-4.39-8.09-5.8-12.43c-1.55-4.78-3.25-9.55-0.22-14.72  c1.15-1.95,0.1-5.08,0.57-7.58c0.65-3.49,0.73-7.05,1.15-10.55c0.96-7.93,5.37-12.82,11.79-16.59c5.8-3.41,12.13-3.88,18.65-3.54  c10.11,0.52,20.59,10.74,21.85,20.74C469.93,104.19,470.42,107.52,470.35,110.59z"/>
	<path class="st0" d="M517.32,317.33c-1.95,13.59,4.53,24.47,11.14,35.41c4.09,6.78,5.17,14.46,4.18,22.21  c-0.37,2.87-2.09,5.69-3.66,8.25c-1.53,2.51-2.33,5.01-2.18,7.91c0.24,4.48-0.4,8.98,0.36,13.44c0.09,0.53,0.1,1.08-0.57,1.11  c-0.33,0.01-0.76-0.29-1-0.56c-0.19-0.22-0.24-0.62-0.24-0.94c-0.03-4.7,0.18-9.42-0.13-14.11c-0.29-4.48,2.43-7.58,4.27-11.11  c2.59-4.95,2.12-10.14,1.31-15.39c-1.48-9.52-8.67-16.31-11.91-24.95c-3.2-8.55-5.34-17.31-3.21-26.59c1.3-5.7-1.87-9.8-5.55-13.53  c-4.44-4.51-6.33-10.12-7.26-16.18c-0.13-0.87,0.17-2.04-1.06-2.22c-1.27-0.18-1.34,1.23-1.58,1.89c-1.73,4.66-3.13,9.44-4.93,14.07  c-2.57,6.58-3.81,13.47-4.77,20.38c-0.59,4.27,0.86,8.52,1.55,12.75c1.31,8.11,2.62,16.23,4.37,24.25c0.99,4.52,1.83,9.09,2.95,13.6  c1.35,5.46,3.24,10.8,4.02,16.43c0.85,6.18,2.14,12.3,3.21,18.46c0.16,0.89,0.22,1.81,0.22,2.72c0.01,14.78,0.08,29.56-0.03,44.33  c-0.04,5.44-1.76,10.62-3.11,15.85c-1.85,7.2-3.75,14.36-2.99,22.04c0.72,7.25-0.99,14.37-3,21.35c-0.67,2.35-0.68,4.79-0.01,7.11  c1.42,4.9,1.91,10.04,3.31,14.88c2.32,8.03,0.7,15.78-0.25,23.59c-0.66,5.36-2.17,10.61-3.13,15.94c-0.54,2.99-0.78,6.03-1.16,9.04  c-0.99,7.82-2.33,15.58-3.47,23.37c-1.19,8.14-2.94,16.22-3.09,24.48c-0.12,6.89,3.2,12.39,7.56,17.3  c5.17,5.83,9.8,12.28,17.32,15.56c1.61,0.7,2.07,2.13,0.62,3.87c-2.33,2.79-5.22,4.18-8.77,4.22c-4.91,0.06-9.82-0.04-14.73,0.04  c-2.42,0.04-4.43-0.82-6.43-2.08c-4.06-2.55-8.44-4.07-13.33-3.96c-4.8,0.11-6.61-1.92-6.8-6.66c-0.26-6.6,0.45-13.03,2.44-19.32  c0.05-0.16,0.08-0.33,0.07-0.49c-0.39-7.45,1.76-14.79,1.02-22.26c-0.82-8.3-1.22-16.67-2.63-24.87  c-1.13-6.58-2.48-13.15-4.09-19.68c-3.09-12.52-3.9-25.36-2.07-38.13c0.72-5.06,0.82-10.16,1.69-15.21  c1.02-5.91-0.94-11.74-1.93-17.56c-0.91-5.39-0.52-10.88-1.31-16.32c-0.84-5.78-2.08-11.42-3.33-17.1  c-1.28-5.83-2.98-11.55-4.02-17.48c-1.37-7.81-1.82-15.7-3.12-23.5c-0.8-4.78-0.13-9.72-1.03-14.61c-0.66-3.59-0.04-7.4-1.47-10.95  c-0.3-0.73,0.09-1.38,0.87-1.49c1.11-0.16,1.45,0.63,1.45,1.56c0.01,4.04,0.49,8.03,0.93,12.04c0.77,6.98,0.64,14.09,1.7,21.01  c1.37,8.93,2.1,18.01,4.65,26.73c3.67,12.55,5.79,25.25,5.94,38.41c0.07,5.96,2.71,11.87,2.28,18.07  c-0.44,6.34-1.09,12.63-2.28,18.9c-0.67,3.54-0.05,7.31-0.26,10.96c-0.47,8.45,1.56,16.48,3.31,24.65  c1.61,7.53,2.93,15.14,3.92,22.83c1.52,11.77,2.75,23.53,2.14,35.35c-0.23,4.35-0.95,8.78-1.93,13.15  c-1.24,5.53-2.03,11.26-1.35,16.98c0.3,2.53,3.04,3.95,4.69,3.78c6.53-0.67,11.75,2.39,17.32,4.79c5.73,2.47,11.74,1.03,17.62,0.52  c2.13-0.19,4.48-0.29,6.31-1.9c1.46-1.28,2.06-2.24-0.08-3.56c-10.4-6.36-18.14-15.22-23.18-26.23c-1.46-3.19-2.11-6.8-1.09-10.78  c0.94-3.67,0.94-7.66,1.64-11.5c1.15-6.31,1.79-12.72,2.7-19.08c1.08-7.57,2.14-15.14,3.34-22.68c1.47-9.27,3.63-18.47,4.45-27.79  c0.72-8.16-1.91-16.14-3.8-24.07c-1.04-4.35-0.88-8.52,0.12-12.93c1.33-5.9,2.14-11.93,1.5-18.09c-0.56-5.39,0.83-10.59,1.94-15.87  c1.3-6.23,3.38-12.22,4.12-18.66c1.64-14.2,0.46-28.38,0.73-42.56c0.15-8.09-1.42-16.04-3.09-24c-1.48-7.04-3.07-14.05-4.94-20.97  c-2.39-8.87-3.05-17.99-4.98-26.9c-1.18-5.46-2.43-10.91-2.86-16.48c-0.84-10.76,2.15-20.82,5.95-30.71  c1.85-4.81,3.63-9.65,5.42-14.48c0.27-0.73,0.47-1.5,1.44-1.43c0.95,0.07,1,0.94,1.3,1.61c1.55,3.43,0.62,7.29,2.15,10.83  c1.54,3.56,2.53,7.43,5.58,10c4.7,3.95,6.86,8.74,6.13,14.87C517.16,313.98,517.32,315.66,517.32,317.33z"/>
	<path class="st1" d="M102.27,275.71c-0.05-16.19,5.3-30.23,16.79-41.8c0.81-0.81,1.76-2.19,2.8-1.65c0.89,0.46,1.76,2.08,1.67,3.1  c-0.65,7.18,3.32,13.04,5.45,19.37c3.27,9.71,2.97,19.02-0.92,28.38c-1.83,4.41-3.94,8.61-6.88,12.43c-4.17,5.43-8.44,5.8-13.2,0.87  c-3.7-3.83-5.19-8.59-5.67-13.71C102.09,280.38,102.27,278.04,102.27,275.71z"/>
	<path class="st1" d="M289.11,275.78c-0.03,6.36-0.75,11.87-3.26,17.05c-1.57,3.24-4.2,5.34-7.38,6.73c-2.22,0.97-4.22,0.17-5.9-1.43  c-5.29-5.01-8.45-11.21-10.52-18.13c-1.7-5.67-3.07-11.3-1.97-17.26c0.79-4.27,2.15-8.35,3.76-12.38c2.08-5.2,3.98-10.49,4.26-16.18  c0.03-0.7,0.19-1.36,0.96-1.57c1.19-0.32,2.11,0.29,2.89,1.07c3.66,3.64,6.71,7.8,9.26,12.25  C286.62,255.36,288.92,265.66,289.11,275.78z"/>
	<path class="st0" d="M550.4,342.51c0.52,3.63-0.99,9.03,0.66,14.39c0.45,1.44-0.57,3.54-2.15,4.47c-2.01,1.18-4.21,1.39-6.34,0  c-4.95-3.23-7.84-8.27-11.14-12.89c-4.06-5.7-8.03-11.54-10.29-18.24c-0.83-2.45-1.11-5.14-1.27-7.75  c-0.21-3.4-0.06-6.82-0.05-10.23c0.01-1.38-0.38-3.07,1.34-3.67c1.75-0.61,2.68,0.84,3.61,2c1.18,1.49,2.38,2.97,3.51,4.5  c1.07,1.44,2.54,1.57,4.03,1.16c1.5-0.41,1.31-1.81,1.53-3.06c0.93-5.26,2.83-10.21,5.7-14.71c1.07-1.67,2.33-1.24,3.19,0.45  c3.53,6.96,4.61,14.55,6.25,22.08C550.44,327.65,550.03,334.2,550.4,342.51z"/>
	<path class="st0" d="M368.97,317.03c0.21,10.52-3.4,19.68-9.46,28.16c-3.61,5.04-6.95,10.25-11.56,14.46  c-2.14,1.96-4.48,3.89-7.51,2.1c-2.97-1.75-3.35-4.53-2.59-7.82c1.49-6.43,1.26-12.94,0.8-19.52c-0.38-5.44,0.04-10.97,1.4-16.35  c1.54-6.09,2.44-12.37,5.46-18.03c0.59-1.1,0.87-2.49,2.38-2.56c1.54-0.08,1.81,1.5,2.17,2.41c1.77,4.46,3.8,8.85,4.85,13.57  c0.25,1.11-0.35,2.65,1.54,2.92c1.83,0.26,3.28-0.44,4.39-1.79c1.36-1.66,2.58-3.44,3.92-5.12c0.55-0.69,1.07-1.64,2.16-1.44  c1.07,0.2,1.24,1.23,1.52,2.09C369.17,312.38,368.97,314.71,368.97,317.03z"/>
	<path class="st1" d="M365.53,285.68c0.57-5.68-0.46-12.07-3.56-18.04c-0.75-1.44-1.51-3.13-3.5-3.14c-1.89-0.01-2.78,1.46-3.8,2.84  c-2.53,3.43-1.99,7.33-1.54,11.04c0.36,3.03,0.32,5.93-0.27,8.87c-0.13,0.65-0.28,1.4-1.08,1.5c-0.83,0.1-1.01-0.58-1.29-1.23  c-4.11-9.64-3.07-19.54-1.43-29.43c1.16-7,5.3-12.05,10.79-16.35c4.8-3.77,9.16-8.08,12.66-13.16c0.58-0.84,1.02-2.22,2.33-1.73  c1.15,0.43,1.53,1.69,1.54,2.92c0.06,5.31,0.32,10.58,0.85,15.88c0.52,5.21,2.13,10.13,2.9,15.25c0.56,3.73-0.61,7.06-1.4,10.42  c-1.47,6.21-2.12,12.74-5.79,18.26c-1.46,2.2-2.97,4.36-4.5,6.51c-0.46,0.65-1.15,0.97-1.97,0.7c-0.9-0.3-0.92-1.1-0.92-1.85  C365.53,292.17,365.53,289.42,365.53,285.68z"/>
	<path class="st1" d="M533.83,281.56c-0.41-3.54,0.98-7.07-0.01-10.61c-0.2-0.71-0.22-1.53-0.6-2.12c-1.24-1.93-2.41-4.61-5.08-4.11  c-3.18,0.6-3.84,3.97-4.74,6.51c-2.48,7.03-3.27,14.29-2.14,21.74c0.21,1.37,0.7,3.5-0.92,4.01c-1.18,0.37-2.14-1.5-3-2.58  c-4.86-6.08-7.07-13.19-8.64-20.71c-0.56-2.67-0.49-5.49-1.75-8.12c-1.81-3.78,0.52-7.51,1.2-11.15c0.94-5.03,1.62-10.08,2.16-15.15  c0.34-3.29,0.37-6.61,0.55-9.92c0.06-1.02,0.21-2.24,1.2-2.56c1.21-0.4,1.52,0.97,2.1,1.72c4.27,5.65,9.37,10.49,14.88,14.89  c5.59,4.48,8.61,10.29,9.41,17.31c0.75,6.63,2.29,13.26,0.26,19.93c-0.62,2.03-1.23,4.08-2.03,6.04c-0.24,0.6-0.21,1.96-1.49,1.55  c-0.94-0.3-1.36-1.16-1.36-2.18C533.82,284.55,533.82,283.06,533.83,281.56z"/>
	<path class="st0" d="M397.67,203.59c-3.83-0.96-8.38-1.37-11.69-4.92c-1.55-1.66-2.06-3.12-0.01-5.03  c4.29-4.02,9.82-5.44,14.98-7.63c12.33-5.24,23.21-12.19,29.59-24.59c0.52-1.02,1.32-1.9,2.05-2.81c1.34-1.67,3.22-1.29,4.85-0.89  c1.48,0.36,1.06,1.97,0.93,3.03c-0.71,5.86-1.36,11.69-3.09,17.41c-1.44,4.74-2.07,9.75-2.78,14.69c-0.24,1.68-0.71,2.68-2.22,3.49  c-4.04,2.15-8.32,3.7-12.77,4.48C411.11,201.93,404.65,202.64,397.67,203.59z"/>
	<path class="st0" d="M449.39,163.84c0-1.35-0.07-2.44,0.02-3.51c0.08-0.92-0.56-2.26,0.7-2.63c1.32-0.39,2.67-0.37,3.96,0.69  c2.86,2.35,3.83,5.92,5.92,8.78c4.23,5.77,9.61,9.99,15.58,13.59c6.18,3.73,12.99,6.14,19.66,8.85c1.88,0.76,3.64,1.99,5.21,3.3  c2.67,2.23,2.45,5.11-0.5,7c-5.23,3.35-10.86,4.22-17.01,2.91c-5.69-1.21-11.54-1.67-17.22-2.94c-3.31-0.74-6.75-1.82-9.45-3.96  c-2-1.58-1.9-4.44-2.35-6.84c-0.22-1.2-0.27-2.43-0.49-3.66C452.1,178.14,448.97,171.18,449.39,163.84z"/>
	<path class="st0" d="M249.41,667.68c-4.35,0.54-10.06-0.42-15.5-4.13c-2.45-1.67-5.97-2.15-9.33-2c-4.93,0.22-6.78-1.94-6.99-6.81  c-0.39-9.26,2.44-18.11,3.21-27.19c0.56-6.65,1.06-13.38-0.41-20.06c-0.51-2.32-0.75-4.77-0.7-7.15c0.13-6.33-0.73-12.62-2.25-18.64  c-1.62-6.43-2.24-13.04-4.1-19.43c-1.02-3.52-1.45-7.28-1.65-10.96c-0.52-9.8-0.06-19.61,1.59-29.26c0.68-3.98,0.57-7.89,0.89-11.83  c0.32-3.98-1.81-7.49-1.91-11.41c-0.03-1.37-0.73-2.86-0.62-4.35c0.61-8.43-1.24-16.62-2.64-24.82c-0.88-5.12-2.9-10.03-4.1-15.11  c-1.13-4.79-2.15-9.64-2.69-14.52c-1.33-11.97-2.33-23.98-3.53-35.97c-0.23-2.27,0.63-4.65-0.71-6.83c-0.45-0.73,0.37-1.04,0.9-1.14  c1.07-0.2,1.29,0.63,1.26,1.4c-0.24,5.25,1.06,10.36,1.17,15.61c0.14,6.49,1.39,12.94,1.97,19.43c0.58,6.5,1.54,12.95,2.92,19.31  c1.08,5,2.49,9.93,3.7,14.91c1.61,6.57,3.21,13.2,3.16,19.97c-0.06,8.08,1.68,15.86,2.75,23.77c0.54,3.98-0.41,8.21-1.05,12.27  c-0.21,1.36-0.62,2.71-0.62,4.13c0.01,6.62-1.32,13.14-1.1,19.81c0.23,7.06,1.5,13.84,3.31,20.63c1.22,4.58,1.92,9.3,2.7,13.99  c2.39,14.35,3.95,28.8,3.49,43.36c-0.17,5.49-1.4,10.95-2.12,16.42c-0.61,4.57-1.36,9.13-1.71,13.72c-0.25,3.38,2.62,5.79,7.29,5.72  c4.78-0.07,8.77,1.46,12.76,3.88c2.8,1.69,6.27,2.29,9.48,2.1c4.85-0.29,9.79-0.06,14.55-1.42c1.3-0.37,2.39-1.17,3.25-2.2  c0.73-0.87,0.89-1.6-0.43-2.35c-10.13-5.83-17.17-14.69-23.08-24.46c-1.96-3.24-1.57-7.19-1.6-11.02  c-0.06-7.69,1.53-15.14,2.82-22.58c1.54-8.9,2.54-17.87,4.05-26.78c1.05-6.2,2-12.49,2.88-18.75c0.82-5.79,1.87-11.52,1.95-17.39  c0.09-6.18-1.16-12.13-2.88-17.98c-1.94-6.59-1.87-13,0.12-19.63c1.45-4.83,1.64-10.03,1.14-15.04c-0.58-5.88,0.26-11.59,1.95-17.01  c3.67-11.77,5.16-23.7,4.68-35.96c-0.04-0.96-0.57-2.63,0.84-2.69c1.02-0.04,1.17,1.64,1.09,2.66c-0.62,7.48-0.16,14.97-1.69,22.48  c-1.28,6.27-3.44,12.28-4.61,18.53c-0.61,3.28-0.55,6.76-0.28,10.11c0.52,6.37-0.55,12.5-1.95,18.65c-1.18,5.21-1.55,10.62,0,15.69  c2.94,9.6,3.81,19.4,2.9,29.22c-0.73,7.86-3.19,15.55-4.16,23.4c-0.87,7.02-2.4,13.93-2.82,21.04c-0.34,5.87-2.17,11.63-2.94,17.49  c-1.15,8.82-3.89,17.8,0.68,26.39c1.77,3.32,4.18,6.4,6.74,9.17c4.3,4.65,7.96,10.09,14.26,12.52c1.77,0.68,2.92,2.09,2.34,4.12  c-0.63,2.19-2.56,3.13-4.48,3.9C259.58,668.18,255.41,667.48,249.41,667.68z"/>
	<path class="st0" d="M245.59,505.29c0.44,4.25-0.54,8.5-1.31,12.5c-0.91,4.76-5.28,7.87-9.78,9.81c-4.7,2.02-7.36-0.04-9.89-6.5  c-1.4-3.56-0.82-7.15-0.99-10.75c-0.01-0.24-0.01-0.58,0.14-0.72c4.44-4.19,7.37-9.94,12.56-13.26c4.56-2.92,9.05,0.08,9.27,5.68  C245.63,503.13,245.59,504.21,245.59,505.29z"/>
	<path class="st0" d="M144.69,511.22c0-3.67,0.05-6.47-0.01-9.26c-0.07-3.34,1.84-5.68,4.46-6.96c2.41-1.18,4.44,0.86,6.02,2.54  c3.91,4.15,8.22,8.05,10.73,13.25c2.27,4.71-1.2,14.88-5.65,17.54c-2.11,1.26-3.91-0.25-5.56-1.04  C147.64,523.91,144.02,518.35,144.69,511.22z"/>
	<path class="st0" d="M206.35,418.17c-1.12-5.85-1.32-12.09-2.4-18.17c-1.24-6.98,0.23-12.81,4.82-18.09  c3.04-3.49,5.83-7.2,8.71-10.83c0.44-0.55,0.93-1.15,1.6-0.98c0.86,0.22,0.5,1.11,0.53,1.72c0.28,4.97-1.15,9.71-1.78,14.56  c-0.47,3.59-1.13,7.13-1.76,10.68c-1.14,6.37-2.5,12.7-4,18.99c-0.89,3.74-0.88,7.71-2.65,11.23c-0.29,0.57-0.25,1.69-1.4,1.34  c-0.89-0.27-0.96-1.1-0.89-1.86C207.42,423.92,205.33,421.37,206.35,418.17z"/>
	<path class="st0" d="M169.61,373.77c0.12-1.47-0.27-2.58,0.98-3.11c1.19-0.51,1.72,0.5,2.22,1.13c4.19,5.31,8.4,10.61,12.4,16.05  c0.75,1.02,0.98,2.71,0.88,4.04c-0.65,8.05-1.21,16.11-2.15,24.15c-0.45,3.86-1.2,7.65-1.79,11.47c-0.1,0.67,0.26,1.68-0.94,1.63  c-0.81-0.03-0.89-0.77-1.07-1.45c-1.86-6.76-2.69-13.75-4.66-20.51c-1.27-4.36-1.37-9.04-2.38-13.5c-1.32-5.79-1.87-11.7-2.92-17.52  C170,375.2,169.73,374.25,169.61,373.77z"/>
	<path class="st0" d="M149.31,358.86c5.46-0.05,8.47,4.7,7.18,10.12c-1.93,8.08-5.21,15.52-9.33,22.64  c-3.13,5.41-6.25,10.83-8.46,16.7c-0.19,0.5-0.31,1-0.96,0.87c-0.94-0.19-1.06-0.95-1.05-1.74c0.07-4.72,0.03-9.42,0.67-14.15  c1.23-9.21,4.53-17.8,7.09-26.63c0.5-1.71,0.45-3.52,1.15-5.26C146.35,359.57,147.38,358.71,149.31,358.86z"/>
	<path class="st0" d="M257.63,411.17c0.48-5.88-1.41-13.1-2.33-20.46c-0.95-7.64-2.86-15.06-4.97-22.32  c-1.95-6.74-3-13.59-4.11-20.39c-1.35-8.34-3.43-16.53-4.33-25c-1.11-10.45,1.4-19.9,4.98-29.39c2.1-5.56,3.85-11.26,5.74-16.9  c0.32-0.95,0.78-1.74,1.86-1.67c1.04,0.06,1.41,0.81,1.72,1.8c0.89,2.85,0.32,5.81,1.21,8.77c1.38,4.61,2.95,9.32,6.44,12.27  c5.73,4.85,6.38,10.82,5.66,17.33c-1.16,10.39,1.03,19.98,6.24,28.92c3.26,5.6,7,11,8.5,17.38c1.73,7.37,1.76,14.66-2.83,21.31  c-3.04,4.41-3.03,9.48-2.74,14.55c0.13,2.31,0.38,4.61,0.62,6.91c0.07,0.63-0.09,0.97-0.74,0.96c-0.59,0-0.99-0.37-0.94-0.93  c0.67-8.15-1.96-16.57,3.44-24.32c3.69-5.3,2.85-11.7,1.56-17.93c-1.85-8.98-8.58-15.49-11.52-23.88  c-1.47-4.18-2.68-8.32-3.22-12.81c-0.53-4.43-0.65-8.63,0.16-12.99c1.07-5.74-1.59-10.02-5.58-13.96  c-4.61-4.56-6.82-10.39-7.35-16.85c-0.06-0.74,0.09-1.73-0.82-1.87c-1.23-0.19-0.96,0.98-1.23,1.71  c-2.11,5.75-4.42,11.42-6.39,17.22c-2.58,7.6-3.83,15.33-3.26,23.51c0.57,8.27,2.73,16.23,3.95,24.36  c1.25,8.3,3.28,16.54,5.38,24.74c2.13,8.29,3.96,16.7,5.17,25.28c1.25,8.89,0.76,17.67,1.15,26.49c0.03,0.65,0.47,1.58-0.53,1.87  c-0.11,0.03-0.83-1.19-0.84-1.84C257.58,419.62,257.63,416.21,257.63,411.17z"/>
	<path class="st0" d="M251.61,394.55c0.42,2.94-0.64,5.77-0.55,8.68c0.02,0.59-0.11,1.24-0.84,1.33c-0.69,0.08-0.63-0.65-0.84-1.05  c-4.12-7.67-9.16-14.84-12.33-23c-2-5.15-4.66-10.15-3.98-16c0.38-3.23,2.59-4.76,5.27-5.53c2.31-0.67,4.61-0.27,5.86,2.31  c0.79,1.64,0.58,3.47,1.18,5.22c1.54,4.5,2.63,9.2,3.97,13.76C250.75,385.02,251.17,389.75,251.61,394.55z"/>
	<path class="st0" d="M208.13,183.98c0.62-3.57,1.51-9.19,2.6-14.77c0.28-1.42,1.59-2.61,2.87-1.05  c6.27,7.61,15.26,10.95,23.61,15.28c0.99,0.51,2.19,0.98,2.13,2.13c-0.08,1.31-1.43,1.25-2.5,1.5c-7.47,1.76-14.94,3.54-22.58,4.46  C208.12,192.27,208.13,192.34,208.13,183.98z"/>
	<path class="st0" d="M182.07,181.04c0.19,2.97,0.42,5.94,0.57,8.91c0.1,1.87-0.81,2.91-2.72,2.52c-6.81-1.38-13.6-2.84-20.4-4.26  c-2-0.42-4.01-0.81-6.03-1.19c-0.69-0.13-1.66,0.18-1.73-0.92c-0.07-1.05,0.33-2.08,1.36-2.46c7.27-2.7,13.67-7.03,20.32-10.88  c1.45-0.84,2.76-2.08,3.37-3.86c0.29-0.84,0.97-1.68,1.95-1.74c1.28-0.08,0.88,1.21,1.14,1.87  C181.38,172.88,182.11,176.9,182.07,181.04z"/>
	<path class="st0" d="M504.43,222.24c-2.17,3,0.69,7.87-3.11,10.99c-4.13,3.4-9.04,3.6-14.01,3.26c-2.26-0.15-1.93-2.17-1.89-3.66  c0.13-5.23,0.14-10.47,1.39-15.62c0.66-2.71,1.63-5.21,3.7-7.04c1.91-1.69,3.92-0.51,5.39,0.76c2.75,2.39,5.22,5.11,7.81,7.67  C504.61,219.49,504.24,220.62,504.43,222.24z"/>
	<path class="st0" d="M401.94,230.24c0.01,5.79-0.97,6.68-5.56,6.23c-1.72-0.17-3.43,0.04-5.19-0.34c-5.74-1.22-6.5-5.54-7.95-10.36  c-2.34-7.77,3.07-10.53,7.46-14.08c4.37-3.54,7.22-1.93,8.93,3.63C401.26,220.64,400.64,226.14,401.94,230.24z"/>
	<path class="st1" d="M304.49,374.59c0.01,5.06-2.81,7.1-7.41,5.79c-2.61-0.74-5.23-1.42-7.58-2.85c-3.07-1.86-3.78-8.22-1.09-10.6  c0.95-0.84,2.01-0.46,3.05-0.09c2.85,1.03,5.62,1.65,8.64,0.23c1.56-0.74,3.1-0.13,3.42,2.02  C303.8,371.04,304.96,372.84,304.49,374.59z"/>
	<path class="st1" d="M87.74,374.34c0.01-0.99,0.02-1.98,0.03-2.97c0.86-3.34,1.97-5.76,6.28-3.64c2.38,1.18,4.96-0.72,7.51-0.88  c1.91-0.12,2.92,0.24,3.33,2.52c1.42,7.98-1.5,8.25-7.33,10.4c-1.07,0.4-2.26,0.49-3.38,0.78  C90.16,381.58,87.85,379.37,87.74,374.34z"/>
	<path class="st1" d="M352.99,369.86c0.71,1.16,0.18,2.32-0.01,3.48c-1.1,4.25-5.09,4.17-8.18,5.4c-0.82,0.33-1.78,0.38-2.68,0.42  c-4.67,0.25-6.61-0.38-6.11-4.85c0.29-2.59-0.43-5.29,1.33-7.68c0.79-1.07,1.51-1.45,2.69-0.87c2.38,1.17,4.85,0.93,7.25,0.24  C351.96,364.67,352.78,365.18,352.99,369.86z"/>
	<path class="st1" d="M551.72,373.13c0.03,5.89-1.22,6.74-6.84,5.86c-3-0.47-5.82-1.22-8.33-2.87c-2.33-1.53-2.98-8.01-1.13-10  c0.87-0.93,2.01-0.86,3.02-0.54c3.24,1.01,6.42,1.46,9.68,0.01c1.1-0.49,1.82,0.19,2.35,1.21  C551.59,368.94,551.8,371.21,551.72,373.13z"/>
	<path class="st0" d="M168.19,640.15c0.35,1.71-0.42,3.22-1.18,4.52c-1.16,1.99-3.11,2.66-4.99,0.95c-2.66-2.43-5.92-3.85-8.9-5.72  c-3.11-1.95-3.57-6.32-0.38-8.12c1.96-1.1,4.31-2.48,6.79-1.09c1.96,1.11,4.63-0.62,6.3,2.05  C167.31,635.1,167.91,637.54,168.19,640.15z"/>
	<path class="st0" d="M222.63,639.84c-0.63-2,0.62-3.97,1.28-5.93c0.59-1.74,1.96-3.09,4.38-2.84c2.61,0.28,5.17-1.58,7.94,0  c1.39,0.8,3.08,1.21,3.3,2.99c0.26,2.12,0.45,4.25-1.98,5.65c-3.22,1.85-6.25,4.05-9.4,6.03c-2.27,1.43-5.07-0.18-5.5-3.14  C222.53,641.79,222.63,640.94,222.63,639.84z"/>
	<path class="st0" d="M470.37,638.52c0.01-4.53,2.31-6.78,6.69-7.48c2.56-0.41,4.93-0.92,7.45,0.08c1.88,0.74,3.04,1.93,3.32,3.89  c0.29,2.05-0.13,3.66-2.35,4.61c-3.07,1.31-6.2,2.44-9.1,4.27c-3.29,2.08-5.61,0.25-6.01-4.13  C470.34,639.36,470.38,638.94,470.37,638.52z"/>
	<path class="st0" d="M415.93,638.71c0.51,1.56-0.4,3.15-1.12,4.67c-0.6,1.25-1.54,2.16-3.36,1.16c-3.48-1.92-7.17-3.45-10.7-5.28  c-2.47-1.29-2.81-5.62-0.43-7.09c2.1-1.31,4.45-2.58,7.17-1.45c0.52,0.22,1.11,0.35,1.67,0.41  C414.36,631.62,415.93,633.3,415.93,638.71z"/>
	<path class="st0" d="M452.89,407.66c0-6.37,0.14-6.46,5.78-3.82c5.6,2.62,5.51,2.79,2.97,9.45c-1.96,5.15-3.5,10.48-4.26,15.98  c-0.08,0.56,0.09,1.29-0.7,1.38c-0.73,0.08-1-0.6-1.13-1.13c-0.58-2.49-1.59-5.01-1.51-7.49  C454.2,417.16,452.56,412.5,452.89,407.66z"/>
	<path class="st0" d="M433.91,408.48c-0.59,3.52-1.52,8.87-2.35,14.23c-0.34,2.19,0.04,4.5-1.08,6.56c-0.14,0.26-0.36,0.48-0.55,0.72  c-0.17-0.24-0.41-0.46-0.49-0.72c-1.98-6.56-3.18-13.36-6-19.66c-1.29-2.87,0.94-3.82,2.61-4.99c0.91-0.64,2.08-0.95,3.16-1.33  C433.91,401.62,433.91,401.63,433.91,408.48z"/>
    </svg>